<?xml version="1.0" standalone="no"?>
<!DOCTYPE svg PUBLIC "-//W3C//DTD SVG 20010904//EN"
 "http://www.w3.org/TR/2001/REC-SVG-20010904/DTD/svg10.dtd">
<svg version="1.0" xmlns="http://www.w3.org/2000/svg"
 width="500.000000pt" height="499.000000pt" viewBox="0 0 500.000000 499.000000"
 preserveAspectRatio="xMidYMid meet">

<g transform="translate(0.000000,499.000000) scale(0.100000,-0.100000)"
fill="#000000" stroke="none">
<path d="M2460 4795 c0 -20 -5 -25 -26 -25 -22 0 -25 -4 -22 -27 2 -22 8 -27
24 -25 34 5 39 -46 7 -71 -19 -15 -23 -27 -21 -56 l3 -36 62 -3 c54 -3 63 0
73 18 14 26 5 54 -24 77 -28 23 -21 66 12 71 17 3 22 10 22 31 0 25 -3 28 -25
23 -22 -4 -25 -1 -25 22 0 22 -4 26 -30 26 -25 0 -30 -4 -30 -25z"/>
<path d="M2424 4504 c-34 -81 -41 -216 -18 -334 6 -29 24 -42 24 -17 0 7 13
28 29 47 l29 35 22 -20 c12 -11 29 -33 38 -50 l16 -30 13 55 c27 109 3 315
-40 342 -7 4 -31 8 -55 8 -40 0 -44 -3 -58 -36z m84 -20 c1 -28 -2 -35 -16
-32 -16 3 -26 51 -15 70 10 18 30 -6 31 -38z m7 -54 c4 -6 1 -18 -6 -26 -10
-13 -10 -17 0 -23 20 -13 9 -46 -17 -49 -28 -4 -40 24 -19 45 15 15 15 17 0
28 -9 7 -13 17 -9 23 9 15 43 16 51 2z m-1 -126 c22 -21 3 -56 -27 -52 -37 5
-33 67 5 68 4 0 14 -7 22 -16z"/>
<path d="M2225 4516 c-150 -37 -207 -117 -184 -259 9 -56 92 -292 110 -311 4
-5 11 8 14 28 4 20 9 36 12 36 3 0 19 -11 35 -25 17 -14 33 -24 35 -21 3 2 -7
60 -20 128 -41 199 -41 202 -19 251 23 52 70 84 135 93 42 6 47 10 61 45 9 22
16 42 16 44 0 10 -147 3 -195 -9z m153 -13 c-5 -25 -28 -28 -28 -4 0 12 6 21
16 21 9 0 14 -7 12 -17z m-110 -16 c4 -20 -25 -34 -40 -19 -15 15 -1 44 19 40
10 -2 19 -11 21 -21z m60 6 c-2 -10 -10 -18 -18 -18 -8 0 -16 8 -18 18 -2 12
3 17 18 17 15 0 20 -5 18 -17z m-120 -31 c4 -28 -24 -41 -44 -20 -20 20 -7 50
20 46 13 -2 22 -12 24 -26z m-51 -39 c4 -10 -1 -22 -13 -32 -11 -9 -18 -25
-16 -38 4 -28 -32 -50 -54 -32 -22 18 -13 53 13 57 19 3 21 6 13 23 -6 11 -8
24 -5 29 10 16 55 11 62 -7z m-32 -153 c0 -20 -6 -26 -26 -28 -28 -3 -43 16
-32 44 3 9 15 14 32 12 20 -2 26 -8 26 -28z m9 -46 c20 -8 21 -38 1 -54 -21
-17 -45 -5 -45 23 0 35 12 43 44 31z m34 -96 c-4 -28 -42 -37 -52 -13 -9 24 1
35 30 35 21 0 25 -4 22 -22z m17 -48 c9 -15 -14 -40 -31 -33 -22 8 -18 43 5
43 11 0 23 -5 26 -10z"/>
<path d="M2564 4514 c5 -10 12 -31 18 -45 7 -21 17 -28 48 -32 53 -7 109 -36
133 -69 32 -43 31 -109 -2 -257 -16 -74 -28 -139 -25 -143 4 -5 15 -2 25 8 11
9 22 15 25 12 3 -3 -12 -16 -33 -29 -52 -33 -149 -39 -182 -12 -16 13 -22 26
-18 36 8 21 37 22 37 2 0 -19 14 -19 34 1 32 32 13 104 -28 104 -24 0 -66 -38
-66 -60 0 -7 -3 -11 -6 -8 -3 4 2 28 12 56 l18 49 -28 47 c-15 25 -30 46 -34
46 -4 0 -20 -20 -36 -45 l-28 -46 21 -55 c28 -73 27 -90 -1 -34 -18 35 -29 46
-51 48 -48 6 -75 -58 -43 -100 16 -22 36 -23 36 -2 0 23 34 13 38 -12 6 -44
-108 -60 -178 -24 -21 11 -41 24 -45 30 -11 18 -23 10 -30 -20 -8 -37 -55 -77
-100 -86 -44 -8 -65 0 -65 25 0 26 17 36 36 20 13 -10 17 -10 25 2 14 22 11
44 -12 73 -40 51 -88 26 -90 -46 -1 -29 -2 -27 -13 17 -7 28 -16 57 -20 65 -4
8 1 5 12 -7 19 -22 20 -22 37 -3 17 18 17 23 1 78 -24 86 -21 150 8 193 14 20
28 49 32 65 4 16 15 44 26 62 20 32 20 32 -1 32 -37 0 -132 -41 -168 -73 -41
-36 -63 -81 -63 -131 0 -57 21 -137 41 -157 18 -18 18 -19 -1 -16 -10 1 -19
-1 -19 -5 -4 -40 5 -65 43 -119 61 -90 80 -129 68 -141 -12 -12 -4 -38 12 -38
6 0 23 -32 37 -70 15 -39 23 -70 18 -70 -5 0 -9 -10 -9 -21 0 -24 -11 -25 175
16 103 23 145 27 290 28 171 1 236 -7 418 -50 50 -12 70 -14 79 -5 8 8 8 15 0
25 -16 19 26 144 51 150 26 8 20 34 -10 45 -25 9 -26 10 -5 11 12 1 22 5 22
10 0 5 25 45 55 89 41 61 55 90 55 116 0 20 -4 36 -9 36 -5 0 -3 14 6 30 8 17
17 63 20 103 6 84 -5 116 -61 164 -44 39 -176 90 -176 68 0 -2 9 -19 20 -37
11 -18 20 -42 20 -53 0 -11 14 -40 30 -64 35 -52 37 -72 10 -175 -19 -75 -19
-77 0 -96 18 -18 19 -18 33 3 14 20 14 18 5 -23 -23 -104 -26 -109 -27 -54 -1
52 -13 74 -42 74 -41 0 -81 -67 -60 -100 8 -12 13 -12 23 -2 22 22 40 14 36
-15 -3 -25 -7 -28 -38 -27 -57 1 -93 24 -117 74 -25 51 -27 60 -14 60 5 0 12
-13 16 -30 4 -16 10 -30 14 -30 12 0 102 239 112 299 17 106 -8 180 -78 224
-60 37 -101 48 -207 54 -95 6 -99 5 -92 -13z m72 -5 c10 -17 -13 -36 -27 -22
-12 12 -4 33 11 33 5 0 12 -5 16 -11z m60 0 c10 -17 -23 -46 -37 -32 -7 7 -9
19 -6 27 7 18 33 21 43 5z m67 -13 c7 -19 -18 -40 -38 -32 -15 6 -20 28 -8 39
12 12 41 7 46 -7z m62 -36 c0 -18 -6 -26 -23 -28 -13 -2 -25 3 -28 12 -10 26
4 48 28 44 17 -2 23 -10 23 -28z m61 -35 c4 -8 1 -22 -6 -30 -10 -12 -9 -15 8
-15 30 0 47 -34 26 -54 -20 -20 -29 -20 -49 0 -9 9 -13 24 -10 35 4 12 1 21
-9 25 -17 6 -29 32 -20 45 9 15 54 10 60 -6z m-871 -15 c4 -6 1 -18 -6 -26
-11 -13 -14 -13 -27 0 -8 8 -11 19 -8 25 9 14 33 14 41 1z m995 -5 c0 -9 9
-15 23 -15 31 0 38 -9 26 -31 -13 -25 -40 -24 -46 2 -3 11 -11 18 -19 15 -7
-3 -18 2 -25 10 -10 13 -10 17 2 25 21 13 39 11 39 -6z m-1040 -29 c0 -22 -24
-38 -38 -24 -20 20 -14 38 13 38 15 0 25 -6 25 -14z m-45 -43 c4 -11 0 -23
-12 -33 -11 -9 -17 -25 -15 -39 5 -30 -10 -45 -37 -36 -25 8 -29 53 -6 61 10
4 13 13 10 25 -4 10 -3 23 0 29 10 17 52 11 60 -7z m1189 -13 c-1 -13 8 -32
20 -41 17 -14 19 -21 10 -36 -6 -10 -22 -18 -35 -18 -20 0 -24 5 -24 30 0 17
-8 37 -18 45 -26 22 -12 52 22 48 20 -2 26 -8 25 -28z m-199 -50 c0 -20 -6
-26 -28 -28 -18 -2 -29 2 -33 12 -11 28 4 48 33 44 22 -2 28 -8 28 -28z m-18
-84 c-9 -23 -35 -31 -52 -16 -22 18 -18 39 8 49 27 11 53 -9 44 -33z m-993 8
c7 -19 -10 -44 -29 -44 -7 0 -18 7 -25 15 -10 12 -10 18 0 30 16 20 46 19 54
-1z m1230 0 c7 -18 -10 -44 -28 -44 -23 0 -36 22 -25 42 12 22 45 24 53 2z
m-264 -66 c0 -11 -8 -22 -18 -25 -13 -3 -18 -11 -15 -27 6 -27 -20 -42 -37
-21 -8 10 -7 17 5 28 8 9 12 23 8 33 -4 10 0 22 11 30 23 16 46 7 46 -18z
m-354 7 c6 -16 -12 -45 -27 -45 -12 0 -31 39 -24 50 10 15 45 12 51 -5z m-606
-20 c0 -18 -5 -25 -19 -25 -11 0 -23 5 -26 10 -11 18 3 40 25 40 15 0 20 -7
20 -25z m1208 2 c4 -20 -25 -34 -40 -19 -15 15 -1 44 19 40 10 -2 19 -11 21
-21z m-1228 -96 c13 -26 13 -31 -4 -31 -13 0 -26 20 -26 41 0 16 19 10 30 -10z
m1230 7 c0 -22 -17 -41 -29 -34 -8 5 -8 13 -1 27 12 21 30 26 30 7z m-898
-103 c0 -5 -5 -11 -11 -13 -6 -2 -11 4 -11 13 0 9 5 15 11 13 6 -2 11 -8 11
-13z m558 -5 c0 -5 -4 -10 -10 -10 -5 0 -10 5 -10 10 0 6 5 10 10 10 6 0 10
-4 10 -10z m-341 -34 c-2 -2 -56 -6 -119 -9 -63 -2 -95 -1 -70 3 47 7 196 13
189 6z m209 -3 c-21 -2 -55 -2 -75 0 -21 2 -4 4 37 4 41 0 58 -2 38 -4z m110
-10 c-10 -2 -28 -2 -40 0 -13 2 -5 4 17 4 22 1 32 -1 23 -4z m-565 -10 c-7 -2
-21 -2 -30 0 -10 3 -4 5 12 5 17 0 24 -2 18 -5z m630 0 c-7 -2 -21 -2 -30 0
-10 3 -4 5 12 5 17 0 24 -2 18 -5z m-708 -13 c-16 -4 -39 -8 -50 -8 -16 0 -15
2 5 8 14 4 36 8 50 8 22 0 22 -1 -5 -8z m800 0 l20 -9 -20 1 c-11 0 -33 4 -50
8 l-30 8 30 0 c17 0 39 -3 50 -8z m-878 -16 c-3 -3 -12 -4 -19 -1 -8 3 -5 6 6
6 11 1 17 -2 13 -5z m526 -1 c-40 -2 -107 -2 -150 0 -43 1 -10 3 72 3 83 0
118 -2 78 -3z m410 0 c-7 -2 -19 -2 -25 0 -7 3 -2 5 12 5 14 0 19 -2 13 -5z
m-976 -9 c-3 -3 -12 -4 -19 -1 -8 3 -5 6 6 6 11 1 17 -2 13 -5z m311 -1 c-10
-2 -28 -2 -40 0 -13 2 -5 4 17 4 22 1 32 -1 23 -4z m410 0 c-10 -2 -26 -2 -35
0 -10 3 -2 5 17 5 19 0 27 -2 18 -5z m-495 -10 c-7 -2 -21 -2 -30 0 -10 3 -4
5 12 5 17 0 24 -2 18 -5z m570 0 c-7 -2 -19 -2 -25 0 -7 3 -2 5 12 5 14 0 19
-2 13 -5z m-640 -10 c-7 -2 -19 -2 -25 0 -7 3 -2 5 12 5 14 0 19 -2 13 -5z
m507 -8 c0 -8 -7 -15 -15 -15 -16 0 -20 12 -8 23 11 12 23 8 23 -8z m193 8
c-7 -2 -19 -2 -25 0 -7 3 -2 5 12 5 14 0 19 -2 13 -5z m-746 -9 c-3 -3 -12 -4
-19 -1 -8 3 -5 6 6 6 11 1 17 -2 13 -5z m248 -4 c-3 -5 -13 -10 -21 -10 -8 0
-14 5 -14 10 0 6 9 10 21 10 11 0 17 -4 14 -10z m186 -1 c53 -18 53 -25 0 -42
-47 -15 -54 -15 -103 2 -57 20 -58 17 12 44 25 9 55 8 91 -4z m366 5 c-3 -3
-12 -4 -19 -1 -8 3 -5 6 6 6 11 1 17 -2 13 -5z m-627 -19 c25 -30 -11 -72 -51
-60 -43 14 -30 75 16 75 12 0 28 -7 35 -15z m488 3 c32 -32 -11 -79 -50 -54
-21 12 -24 52 -5 59 22 9 43 7 55 -5z m-751 -4 c-3 -3 -12 -4 -19 -1 -8 3 -5
6 6 6 11 1 17 -2 13 -5z m153 -9 c0 -8 -7 -15 -15 -15 -8 0 -15 7 -15 15 0 8
7 15 15 15 8 0 15 -7 15 -15z m670 0 c0 -8 -4 -15 -9 -15 -13 0 -22 16 -14 24
11 11 23 6 23 -9z m-488 -30 c0 -5 -5 -11 -11 -13 -6 -2 -11 4 -11 13 0 9 5
15 11 13 6 -2 11 -8 11 -13z m303 6 c7 -12 -12 -24 -25 -16 -11 7 -4 25 10 25
5 0 11 -4 15 -9z m-551 -10 c17 -6 14 -10 -18 -29 -44 -26 -52 -27 -60 -6 -13
34 -7 44 27 43 17 0 41 -4 51 -8z m866 5 c0 -1 -5 -17 -11 -34 l-10 -31 -45
27 c-41 25 -43 27 -22 34 25 7 88 10 88 4z m-140 -27 c0 -5 -7 -9 -15 -9 -15
0 -20 12 -9 23 8 8 24 -1 24 -14z m-640 7 c0 -2 -7 -9 -15 -16 -12 -10 -15
-10 -15 4 0 9 7 16 15 16 8 0 15 -2 15 -4z m268 -13 c-16 -2 -40 -2 -55 0 -16
2 -3 4 27 4 30 0 43 -2 28 -4z m130 0 c-10 -2 -28 -2 -40 0 -13 2 -5 4 17 4
22 1 32 -1 23 -4z m-260 -10 c-10 -2 -26 -2 -35 0 -10 3 -2 5 17 5 19 0 27 -2
18 -5z m360 0 c-10 -2 -28 -2 -40 0 -13 2 -5 4 17 4 22 1 32 -1 23 -4z m-435
-10 c-7 -2 -19 -2 -25 0 -7 3 -2 5 12 5 14 0 19 -2 13 -5z m500 0 c-7 -2 -19
-2 -25 0 -7 3 -2 5 12 5 14 0 19 -2 13 -5z m-556 -9 c-3 -3 -12 -4 -19 -1 -8
3 -5 6 6 6 11 1 17 -2 13 -5z m616 -1 c-7 -2 -19 -2 -25 0 -7 3 -2 5 12 5 14
0 19 -2 13 -5z m-660 -10 c-7 -2 -19 -2 -25 0 -7 3 -2 5 12 5 14 0 19 -2 13
-5z m704 1 c-3 -3 -12 -4 -19 -1 -8 3 -5 6 6 6 11 1 17 -2 13 -5z m40 -10 c-3
-3 -12 -4 -19 -1 -8 3 -5 6 6 6 11 1 17 -2 13 -5z"/>
<path d="M1560 4113 c-14 -2 -47 -11 -75 -20 -169 -53 -275 -160 -275 -276 0
-49 3 -44 -140 -237 -18 -25 -18 -24 -4 35 7 33 14 94 14 135 0 75 -16 243
-25 269 -4 9 -19 -4 -44 -35 -150 -189 -189 -384 -97 -490 l33 -38 35 22 35
22 -87 -173 c-95 -189 -155 -358 -192 -538 -20 -99 -23 -144 -23 -335 0 -206
-1 -218 -14 -177 -9 28 -40 74 -86 126 -89 102 -199 207 -216 207 -9 0 -10
-20 -6 -83 18 -224 122 -386 260 -400 44 -5 49 -4 57 19 6 14 10 37 11 52 0
15 11 -20 24 -78 33 -140 67 -250 127 -400 124 -316 282 -520 528 -683 124
-82 189 -115 382 -197 215 -92 630 -292 621 -300 -11 -10 -248 -75 -363 -100
-52 -11 -105 -22 -117 -25 -32 -7 -29 -26 10 -61 63 -58 51 -58 208 -5 79 27
199 70 267 96 l123 47 77 -35 c117 -53 267 -107 371 -133 l95 -24 23 27 c12
16 27 41 32 56 12 32 20 28 -99 51 -125 25 -382 98 -373 107 4 4 67 33 138 64
72 32 156 70 187 86 32 16 63 29 70 29 7 0 22 -17 33 -37 38 -71 111 -103 236
-103 104 0 273 48 348 98 31 22 -239 101 -374 111 l-100 7 112 56 c234 120
369 212 488 334 236 240 422 667 471 1079 44 369 -57 783 -288 1175 l-32 55
37 -32 c21 -18 42 -33 46 -33 5 0 23 16 39 35 91 102 59 281 -83 474 -35 47
-49 61 -55 50 -5 -8 -13 -70 -19 -140 -12 -139 -2 -268 24 -319 25 -49 9 -34
-36 33 -23 34 -62 88 -86 119 -38 50 -43 63 -43 108 0 30 -8 66 -19 88 -26 52
-97 115 -170 152 -64 32 -185 65 -202 54 -13 -8 58 -139 122 -226 60 -81 124
-125 192 -134 48 -7 50 -9 117 -98 86 -116 169 -254 231 -383 27 -56 49 -105
49 -107 0 -3 -19 15 -41 39 -23 25 -69 59 -103 75 -88 43 -246 74 -260 51 -3
-5 17 -40 44 -79 105 -149 206 -222 307 -222 48 0 53 2 59 25 3 14 4 38 2 55
-8 53 10 21 41 -73 37 -114 66 -227 82 -332 19 -117 17 -399 -5 -513 -44 -239
-158 -547 -269 -726 l-25 -39 5 69 c4 54 0 83 -17 133 -23 70 -84 196 -99 205
-12 8 -58 -118 -72 -199 -16 -95 -8 -200 20 -258 25 -52 44 -58 89 -30 l27 18
-22 -30 c-49 -68 -273 -271 -273 -247 0 5 6 15 14 21 23 19 55 106 65 174 10
67 -1 203 -17 219 -12 12 -98 -83 -156 -171 -60 -90 -82 -173 -66 -243 l12
-50 44 4 c24 2 44 2 44 1 0 -11 -336 -183 -358 -183 -3 0 12 19 35 43 46 47
84 117 107 197 16 57 27 150 18 150 -11 0 -100 -56 -152 -96 -110 -83 -166
-165 -177 -254 -5 -47 -5 -50 23 -61 16 -6 45 -8 64 -5 l35 5 -27 -14 c-42
-23 -331 -138 -454 -181 l-112 -39 -68 24 c-95 32 -424 163 -506 200 -68 31
-86 44 -48 34 11 -3 36 -2 55 1 33 6 35 9 35 45 0 74 -29 131 -104 207 -84 85
-236 187 -236 160 0 -2 7 -41 16 -87 20 -105 60 -194 114 -253 24 -25 39 -46
35 -46 -9 0 -317 157 -339 173 -14 10 -9 12 28 9 44 -4 45 -4 55 35 15 51 14
80 -4 139 -17 58 -97 179 -163 246 -57 59 -62 54 -69 -81 -7 -112 11 -189 58
-258 15 -24 26 -43 23 -43 -26 0 -260 215 -285 262 -10 18 -9 19 20 4 49 -26
60 -20 88 40 21 47 25 69 24 142 0 51 -9 118 -20 162 -19 73 -47 150 -55 150
-8 0 -55 -87 -80 -150 -37 -91 -52 -177 -39 -229 6 -22 9 -41 8 -41 -8 0 -94
163 -134 253 -78 179 -134 366 -167 561 -13 77 -15 139 -11 285 5 207 21 301
81 487 35 106 64 171 52 112 -3 -14 -3 -41 1 -58 l6 -32 68 4 c83 6 145 42
217 126 56 65 122 160 122 174 0 13 -115 1 -184 -19 -96 -29 -171 -78 -207
-138 -38 -61 -18 -6 40 110 63 127 145 260 238 386 54 73 59 77 103 83 93 12
176 91 268 254 58 102 58 114 2 105z m10 -32 c0 -16 -105 -180 -138 -216 -98
-106 -214 -122 -197 -26 16 92 109 180 240 226 75 26 95 30 95 16z m1911 -37
c155 -46 269 -152 269 -251 0 -46 -19 -56 -74 -42 -56 14 -123 70 -175 148
-47 69 -94 161 -83 161 5 0 33 -7 63 -16z m-2436 -114 c11 -67 9 -263 -4 -318
-15 -60 -69 -129 -94 -119 -9 3 -26 25 -38 48 -30 60 -24 170 15 254 30 66 97
175 108 175 3 0 9 -18 13 -40z m2953 -54 c54 -83 79 -141 93 -221 9 -54 8 -72
-5 -113 -21 -61 -50 -91 -74 -76 -29 18 -60 73 -71 125 -17 78 -10 349 8 349
4 0 26 -29 49 -64z m-2738 -565 c0 -6 -26 -45 -59 -88 -83 -110 -176 -173
-256 -173 -34 0 -35 1 -35 41 0 96 104 177 270 213 83 18 80 18 80 7z m2560
-42 c76 -16 149 -50 192 -88 42 -37 74 -108 63 -141 -7 -21 -12 -22 -57 -17
-64 8 -120 41 -184 109 -56 60 -116 143 -108 151 5 5 9 5 94 -14z m-3283 -815
c117 -118 153 -178 153 -256 0 -47 -1 -48 -30 -48 -117 0 -220 155 -243 368
-3 24 -1 42 5 42 6 0 57 -48 115 -106z m663 -741 c41 -130 37 -288 -8 -342
-17 -21 -17 -21 -48 -2 -58 35 -80 135 -53 236 14 54 70 175 80 175 5 0 18
-30 29 -67z m2695 -156 c17 -77 13 -125 -17 -175 -39 -64 -78 -68 -104 -10
-33 73 -20 247 27 363 l12 30 33 -70 c18 -38 40 -101 49 -138z m-2470 -169
c93 -119 136 -226 117 -293 -8 -26 -13 -30 -40 -29 -71 4 -136 94 -153 212
-10 70 -3 182 11 182 5 0 34 -33 65 -72z m2209 20 c11 -43 6 -154 -10 -208
-21 -72 -60 -128 -105 -151 -66 -33 -79 -24 -79 57 0 78 47 171 144 286 37 43
42 45 50 16z m-1865 -253 c123 -86 182 -163 197 -254 l7 -41 -50 0 c-89 0
-161 71 -208 206 -27 78 -41 144 -30 144 4 0 42 -25 84 -55z m1516 -57 c-43
-170 -127 -268 -229 -268 -35 0 -36 1 -36 37 0 52 35 117 95 177 60 60 178
142 183 127 2 -5 -4 -38 -13 -73z m76 -338 c30 -6 101 -25 158 -42 120 -37
120 -40 -17 -84 -124 -41 -242 -41 -325 -1 -36 18 -63 39 -72 58 -15 28 -15
29 17 45 68 35 141 42 239 24z"/>
<path d="M1346 3911 c-49 -50 -76 -83 -71 -91 5 -8 32 12 82 61 81 80 102 109
81 109 -8 0 -49 -36 -92 -79z"/>
<path d="M3550 3921 c0 -15 110 -105 118 -96 4 4 -18 29 -48 56 -55 49 -70 57
-70 40z"/>
<path d="M981 3748 c-21 -124 -24 -158 -13 -158 6 0 13 15 16 33 3 17 10 59
16 91 12 73 13 96 1 96 -5 0 -14 -28 -20 -62z"/>
<path d="M3988 3754 c-4 -3 -5 -20 -3 -37 3 -18 7 -58 10 -89 4 -32 11 -58 17
-58 7 0 9 28 4 88 -7 83 -15 110 -28 96z"/>
<path d="M1038 3188 c-81 -48 -104 -68 -78 -68 16 0 180 100 180 110 0 17 -12
12 -102 -42z"/>
<path d="M3860 3181 c0 -10 142 -91 160 -91 29 0 1 24 -70 60 -86 43 -90 45
-90 31z"/>
<path d="M490 2405 c0 -13 113 -175 122 -175 17 0 7 25 -36 84 -44 61 -86 106
-86 91z"/>
<path d="M1140 1545 c0 -87 3 -105 15 -105 12 0 15 18 15 105 0 87 -3 105 -15
105 -12 0 -15 -18 -15 -105z"/>
<path d="M3820 1504 c0 -54 4 -83 10 -79 6 3 10 42 10 86 0 46 -4 79 -10 79
-6 0 -10 -35 -10 -86z"/>
<path d="M1393 1316 c51 -133 98 -218 96 -173 -1 26 -75 181 -88 185 -10 3
-12 0 -8 -12z"/>
<path d="M3536 1214 c-34 -80 -39 -111 -16 -88 19 19 70 158 61 167 -5 5 -24
-28 -45 -79z"/>
<path d="M1770 1080 c0 -12 103 -145 122 -156 5 -3 12 -3 15 0 6 5 -94 133
-122 156 -12 10 -15 10 -15 0z"/>
<path d="M3116 959 c-63 -74 -78 -103 -43 -82 23 14 136 150 130 157 -11 11
-18 6 -87 -75z"/>
<path d="M3160 707 c0 -11 24 -16 113 -21 61 -4 122 -10 135 -13 15 -4 22 -1
22 10 0 11 -21 16 -97 21 -54 4 -115 9 -135 12 -29 4 -38 2 -38 -9z"/>
<path d="M1242 3629 c-79 -25 -147 -86 -157 -141 -10 -50 -3 -64 35 -72 118
-23 236 27 375 160 59 56 60 57 35 64 -53 16 -222 10 -288 -11z m247 -8 c10
-7 4 -18 -29 -47 -112 -103 -227 -154 -310 -138 -42 9 -45 11 -42 39 2 17 11
41 21 55 22 32 108 78 163 89 58 12 180 13 197 2z"/>
<path d="M1248 3536 c-83 -33 -102 -46 -72 -46 24 0 184 63 184 73 0 13 -34 5
-112 -27z"/>
<path d="M686 3549 c-52 -112 -69 -189 -64 -290 5 -100 34 -162 93 -199 35
-22 36 -22 57 -4 57 51 71 151 42 290 -17 87 -70 254 -84 268 -6 6 -23 -19
-44 -65z m111 -249 c16 -92 16 -98 -3 -154 -26 -81 -44 -90 -89 -46 -49 48
-69 119 -60 213 8 76 36 181 63 232 l16 30 28 -90 c16 -49 36 -133 45 -185z"/>
<path d="M701 3373 c2 -90 14 -178 23 -175 17 4 2 222 -15 222 -5 0 -8 -21 -8
-47z"/>
<path d="M3451 3612 c-22 -7 -19 -12 56 -82 128 -121 248 -168 352 -140 l43
11 -4 43 c-7 60 -42 102 -117 139 -60 29 -72 31 -185 34 -67 1 -132 -1 -145
-5z m292 -37 c85 -30 161 -125 128 -158 -19 -19 -130 -12 -181 10 -48 21 -124
75 -177 126 -24 23 -30 33 -20 39 19 14 197 2 250 -17z"/>
<path d="M3632 3538 c5 -15 169 -79 181 -71 14 9 -4 19 -90 52 -93 35 -96 36
-91 19z"/>
<path d="M4236 3548 c-32 -87 -65 -210 -77 -289 -14 -99 -2 -169 39 -219 28
-32 28 -33 59 -16 125 64 142 272 41 497 -17 38 -34 69 -39 69 -4 0 -15 -19
-23 -42z m53 -67 c73 -171 63 -368 -23 -424 -37 -25 -45 -22 -68 30 -29 66
-21 183 22 331 18 62 36 112 40 112 4 0 17 -22 29 -49z"/>
<path d="M4257 3353 c-11 -11 -8 -203 3 -203 6 0 10 42 10 105 0 105 -1 111
-13 98z"/>
<path d="M2643 3510 c-176 -37 -303 -169 -303 -313 0 -123 50 -182 344 -406
212 -163 302 -254 382 -385 63 -103 99 -209 121 -351 40 -264 -23 -479 -192
-649 -116 -117 -250 -181 -436 -206 -301 -42 -601 104 -782 380 -146 222 -124
514 55 714 27 31 69 68 93 81 24 15 48 38 55 54 12 29 16 118 6 128 -3 3 -36
-16 -74 -41 -138 -91 -237 -226 -284 -386 -27 -92 -34 -247 -15 -337 30 -140
129 -310 235 -404 185 -164 365 -231 612 -230 449 3 781 243 892 646 18 67 22
107 22 245 1 195 -14 263 -94 425 -92 187 -207 310 -461 492 -293 210 -329
246 -329 325 0 34 30 92 59 116 73 60 197 79 276 43 53 -24 121 -99 170 -189
22 -39 44 -72 49 -72 5 0 6 53 3 128 -5 100 -10 129 -23 139 -25 18 -191 54
-269 58 -38 2 -89 0 -112 -5z"/>
<path d="M478 3098 c-7 -24 -12 -100 -12 -173 0 -112 3 -138 22 -187 29 -73
86 -131 140 -145 49 -13 56 -7 73 58 17 63 1 138 -51 242 -46 92 -142 247
-152 247 -4 0 -13 -19 -20 -42z m80 -85 c102 -173 138 -276 123 -345 -13 -55
-23 -64 -61 -48 -45 19 -95 82 -116 148 -27 85 -23 335 5 317 5 -2 27 -35 49
-72z"/>
<path d="M547 2853 c14 -38 30 -83 36 -100 6 -18 16 -33 23 -33 10 0 4 28 -21
96 -19 53 -35 98 -35 100 0 2 -7 4 -15 4 -11 0 -9 -14 12 -67z"/>
<path d="M4446 3062 c-63 -101 -137 -239 -152 -286 -20 -59 -22 -128 -5 -178
15 -45 40 -49 99 -19 89 46 134 152 132 319 0 101 -18 203 -35 208 -6 2 -23
-18 -39 -44z m50 -120 c11 -150 -19 -258 -90 -320 -41 -36 -74 -48 -89 -33 -6
6 -12 35 -15 65 -6 80 21 155 116 314 64 109 69 107 78 -26z"/>
<path d="M4396 2798 c-23 -59 -33 -95 -26 -102 10 -10 10 -8 56 112 26 68 29
82 15 82 -5 0 -25 -41 -45 -92z"/>
<path d="M1945 3002 c27 -15 55 -38 62 -52 10 -20 12 -145 10 -573 l-2 -549
-30 -24 c-16 -13 -42 -26 -57 -30 -39 -8 -35 -20 10 -28 83 -13 352 -3 352 14
0 4 -13 13 -29 20 -16 6 -40 23 -53 37 l-23 25 -3 533 c-3 608 -5 587 72 623
25 12 46 24 46 27 0 3 -91 5 -202 5 l-203 0 50 -28z"/>
<path d="M2780 3026 c0 -8 124 -96 136 -96 10 0 91 57 129 91 5 5 -51 9 -128
9 -75 0 -137 -2 -137 -4z"/>
<path d="M1070 2976 c-118 -44 -223 -124 -262 -201 -22 -42 -28 -100 -15 -149
8 -27 11 -28 49 -23 96 13 181 102 246 258 55 134 54 141 -18 115z m-10 -119
c-53 -127 -117 -201 -198 -228 -42 -14 -52 -3 -52 59 0 88 76 176 205 239 85
41 89 35 45 -70z"/>
<path d="M916 2773 c-65 -77 -75 -93 -57 -93 9 0 141 154 141 165 0 19 -27 -5
-84 -72z"/>
<path d="M3850 2955 c0 -19 76 -198 100 -235 57 -89 140 -150 204 -150 19 0
27 8 36 36 41 122 -76 269 -266 334 -60 21 -74 24 -74 15z m160 -81 c62 -36
125 -95 147 -138 18 -35 22 -121 6 -137 -28 -28 -128 35 -183 116 -28 41 -90
181 -90 204 0 14 53 -5 120 -45z"/>
<path d="M4037 2741 c57 -69 73 -82 73 -60 0 17 -102 129 -117 129 -9 0 10
-30 44 -69z"/>
<path d="M2787 2674 c-4 -4 -7 -56 -7 -116 0 -59 -3 -108 -7 -108 -5 0 -21 9
-38 21 -62 43 -190 99 -264 115 -42 10 -116 18 -166 18 l-90 1 -3 -51 c-3 -59
3 -64 98 -64 76 0 150 -22 250 -72 93 -46 185 -125 206 -175 10 -23 14 -83 14
-213 0 -227 -3 -236 -108 -265 -12 -4 -20 -11 -17 -16 8 -12 405 -12 405 1 0
5 -23 19 -50 31 -28 12 -55 30 -60 40 -6 10 -10 162 -10 365 l0 347 -73 74
c-40 41 -76 71 -80 67z"/>
<path d="M973 2566 c-110 -80 -183 -193 -183 -280 0 -61 26 -120 56 -124 29
-4 104 55 131 103 36 63 64 163 71 258 6 64 5 87 -4 87 -7 0 -39 -20 -71 -44z
m57 -18 c-1 -62 -32 -188 -60 -245 -33 -66 -86 -117 -117 -111 -40 7 -54 89
-29 161 18 50 87 137 143 181 54 42 63 44 63 14z"/>
<path d="M907 2378 c-35 -68 -49 -115 -28 -92 14 15 81 141 81 153 0 27 -19 5
-53 -61z"/>
<path d="M3930 2543 c1 -89 28 -205 65 -281 30 -59 46 -79 83 -103 26 -16 53
-28 61 -27 8 2 24 18 34 36 27 45 26 124 -1 185 -23 51 -154 189 -210 220
l-32 18 0 -48z m87 -41 c58 -47 119 -119 138 -166 30 -71 13 -176 -28 -176
-12 0 -41 22 -67 48 -35 36 -52 65 -68 117 -23 72 -44 215 -31 215 4 0 29 -17
56 -38z"/>
<path d="M4022 2403 c46 -104 79 -163 87 -159 17 11 -59 166 -81 166 -5 0 -8
-3 -6 -7z"/>
<path d="M4465 2478 c-129 -125 -180 -196 -194 -272 -10 -56 2 -116 25 -116
48 0 109 26 153 66 84 76 146 241 139 374 l-3 65 -120 -117z m99 -5 c-23 -190
-120 -338 -230 -351 l-47 -5 5 55 c7 87 40 140 157 254 58 57 110 104 114 104
5 0 5 -26 1 -57z"/>
<path d="M4407 2281 c-54 -75 -67 -101 -49 -101 4 0 32 35 62 77 72 100 74
103 57 103 -7 0 -39 -36 -70 -79z"/>
<path d="M1033 2198 c-16 -18 -45 -55 -62 -81 -97 -144 -113 -283 -41 -368 28
-33 29 -34 57 -18 68 40 113 147 113 272 0 73 -20 227 -30 227 -3 0 -20 -15
-37 -32z m34 -55 c14 -72 8 -225 -11 -280 -18 -55 -64 -113 -88 -113 -8 0 -24
17 -36 39 -26 46 -29 115 -7 189 16 51 109 202 125 202 5 0 12 -17 17 -37z"/>
<path d="M1001 2023 c-32 -121 -43 -174 -37 -180 11 -12 18 6 42 104 27 112
27 113 14 113 -5 0 -14 -17 -19 -37z"/>
<path d="M3907 2185 c-3 -8 -11 -61 -18 -118 -9 -80 -9 -120 1 -175 13 -80 59
-165 102 -190 26 -15 28 -15 52 7 92 86 66 255 -65 424 -54 70 -63 77 -72 52z
m82 -106 c57 -81 84 -153 85 -224 1 -54 -27 -123 -52 -133 -23 -9 -79 60 -96
119 -23 77 -19 309 5 309 5 0 31 -32 58 -71z"/>
<path d="M3950 2006 c0 -31 51 -186 61 -186 13 0 12 10 -17 102 -26 84 -44
118 -44 84z"/>
<path d="M425 2068 c50 -183 146 -332 247 -384 40 -21 120 -29 146 -15 53 28
6 149 -91 236 -62 55 -269 185 -294 185 -10 0 -12 -7 -8 -22z m128 -69 c177
-110 245 -180 255 -264 4 -36 1 -43 -17 -48 -66 -17 -170 43 -233 136 -53 78
-114 227 -93 227 3 0 42 -23 88 -51z"/>
<path d="M580 1907 c0 -16 122 -137 138 -137 14 0 -117 149 -130 150 -5 0 -8
-6 -8 -13z"/>
<path d="M4465 2019 c-169 -98 -264 -178 -298 -251 -21 -45 -22 -111 -2 -128
23 -19 109 -5 160 24 84 50 161 162 211 308 13 39 24 75 24 80 0 16 -27 7 -95
-33z m24 -104 c-40 -97 -103 -183 -164 -223 -39 -26 -59 -32 -102 -32 -51 0
-53 1 -53 28 0 33 30 98 62 133 36 41 109 95 199 150 99 60 104 55 58 -56z"/>
<path d="M4314 1809 c-82 -73 -95 -89 -72 -89 20 0 174 145 162 153 -6 3 -46
-26 -90 -64z"/>
<path d="M570 1579 c0 -21 61 -125 114 -195 112 -147 249 -204 357 -149 26 14
30 20 24 43 -25 101 -193 220 -403 286 -96 30 -92 29 -92 15z m126 -53 c137
-46 273 -130 318 -195 45 -65 28 -91 -61 -91 -103 0 -214 85 -301 230 -23 39
-42 72 -42 75 0 9 15 5 86 -19z"/>
<path d="M736 1442 c-6 -9 185 -142 204 -142 26 0 3 22 -71 69 -45 29 -91 59
-104 67 -13 8 -26 11 -29 6z"/>
<path d="M4306 1529 c-191 -64 -324 -151 -370 -243 -30 -57 -30 -58 -11 -72
86 -63 228 -24 334 92 47 50 125 167 147 219 18 44 16 44 -100 4z m64 -16 c0
-12 -54 -98 -96 -154 -78 -102 -170 -154 -261 -147 -67 6 -80 17 -64 56 27 65
146 151 296 214 86 36 125 46 125 31z"/>
<path d="M4125 1349 c-97 -54 -112 -65 -102 -75 9 -9 197 99 197 114 0 6 -1
12 -2 12 -2 0 -43 -23 -93 -51z"/>
<path d="M890 1046 c160 -166 415 -228 523 -128 37 35 34 53 -12 95 -64 58
-117 69 -351 74 l-205 5 45 -46z m399 -2 c30 -9 70 -27 88 -42 46 -34 41 -60
-17 -90 -88 -46 -227 -15 -368 82 -116 78 -113 80 79 73 106 -4 183 -12 218
-23z"/>
<path d="M1082 1008 c5 -15 236 -59 244 -46 7 11 -4 14 -126 38 -124 24 -123
24 -118 8z"/>
<path d="M3710 1044 c-71 -15 -136 -54 -159 -96 -14 -24 -14 -29 4 -49 78 -87
270 -75 424 27 68 45 151 114 151 126 0 14 -348 8 -420 -8z m360 -13 c0 -13
-98 -85 -155 -114 -134 -67 -257 -74 -326 -18 -21 17 -22 22 -11 45 17 38 106
76 195 86 103 11 297 12 297 1z"/>
<path d="M3815 973 c-22 -1 -73 -5 -112 -9 -40 -3 -73 -10 -73 -16 0 -10 245
-2 264 9 9 6 -14 23 -29 21 -5 -1 -28 -3 -50 -5z"/>
<path d="M1525 791 c-111 -29 -192 -57 -209 -72 -5 -5 24 -24 64 -43 182 -87
394 -88 488 -2 21 19 52 67 52 80 0 3 -21 18 -47 33 -41 24 -60 28 -143 30
-79 3 -114 -2 -205 -26z m323 -20 c23 -12 42 -24 42 -27 0 -20 -47 -66 -88
-86 -87 -42 -260 -28 -397 33 l-50 22 86 28 c195 63 323 73 407 30z"/>
<path d="M1547 724 c-19 -20 3 -24 119 -24 96 0 125 3 122 13 -5 13 -228 23
-241 11z"/>
</g>
</svg>
