<?xml version="1.0" encoding="UTF-8"?>
<svg xmlns="http://www.w3.org/2000/svg" xmlns:xlink="http://www.w3.org/1999/xlink" width="64px" height="64px" viewBox="0 0 64 63" version="1.1">
<g id="surface1">
<path style=" stroke:none;fill-rule:nonzero;fill:rgb(0%,0%,0%);fill-opacity:1;" d="M 31.488281 2.460938 C 31.488281 2.714844 31.425781 2.777344 31.15625 2.777344 C 30.875 2.777344 30.835938 2.828125 30.875 3.117188 C 30.898438 3.394531 30.976562 3.457031 31.179688 3.433594 C 31.617188 3.371094 31.679688 4.011719 31.269531 4.328125 C 31.027344 4.519531 30.976562 4.667969 31 5.035156 L 31.039062 5.488281 L 31.832031 5.527344 C 32.523438 5.566406 32.640625 5.527344 32.769531 5.300781 C 32.945312 4.972656 32.832031 4.617188 32.460938 4.328125 C 32.101562 4.039062 32.191406 3.496094 32.613281 3.433594 C 32.832031 3.394531 32.894531 3.304688 32.894531 3.042969 C 32.894531 2.726562 32.859375 2.6875 32.574219 2.75 C 32.292969 2.800781 32.257812 2.765625 32.257812 2.472656 C 32.257812 2.195312 32.203125 2.144531 31.871094 2.144531 C 31.550781 2.144531 31.488281 2.195312 31.488281 2.460938 Z M 31.488281 2.460938 "/>
<path style=" stroke:none;fill-rule:nonzero;fill:rgb(0%,0%,0%);fill-opacity:1;" d="M 31.027344 6.132812 C 30.59375 7.15625 30.503906 8.859375 30.796875 10.347656 C 30.875 10.714844 31.105469 10.878906 31.105469 10.5625 C 31.105469 10.476562 31.269531 10.210938 31.476562 9.96875 L 31.847656 9.527344 L 32.128906 9.78125 C 32.28125 9.917969 32.5 10.195312 32.613281 10.410156 L 32.820312 10.789062 L 32.984375 10.097656 C 33.332031 8.71875 33.023438 6.121094 32.472656 5.78125 C 32.382812 5.730469 32.078125 5.679688 31.769531 5.679688 C 31.257812 5.679688 31.207031 5.71875 31.027344 6.132812 Z M 32.101562 6.386719 C 32.113281 6.738281 32.078125 6.828125 31.898438 6.789062 C 31.691406 6.75 31.566406 6.144531 31.707031 5.90625 C 31.832031 5.679688 32.089844 5.980469 32.101562 6.386719 Z M 32.191406 7.066406 C 32.242188 7.144531 32.203125 7.292969 32.113281 7.394531 C 31.988281 7.558594 31.988281 7.609375 32.113281 7.6875 C 32.371094 7.851562 32.230469 8.265625 31.898438 8.304688 C 31.539062 8.355469 31.386719 8 31.65625 7.734375 C 31.847656 7.546875 31.847656 7.523438 31.65625 7.382812 C 31.539062 7.292969 31.488281 7.167969 31.539062 7.09375 C 31.65625 6.902344 32.089844 6.890625 32.191406 7.066406 Z M 32.179688 8.65625 C 32.460938 8.921875 32.21875 9.363281 31.832031 9.3125 C 31.359375 9.25 31.410156 8.46875 31.898438 8.457031 C 31.949219 8.457031 32.078125 8.542969 32.179688 8.65625 Z M 32.179688 8.65625 "/>
<path style=" stroke:none;fill-rule:nonzero;fill:rgb(0%,0%,0%);fill-opacity:1;" d="M 28.480469 5.980469 C 26.558594 6.449219 25.832031 7.457031 26.125 9.25 C 26.238281 9.957031 27.300781 12.9375 27.53125 13.175781 C 27.585938 13.238281 27.671875 13.074219 27.710938 12.820312 C 27.761719 12.570312 27.828125 12.367188 27.867188 12.367188 C 27.902344 12.367188 28.109375 12.507812 28.3125 12.683594 C 28.53125 12.859375 28.734375 12.984375 28.761719 12.949219 C 28.800781 12.921875 28.671875 12.191406 28.503906 11.332031 C 27.980469 8.820312 27.980469 8.785156 28.261719 8.164062 C 28.558594 7.507812 29.160156 7.105469 29.992188 6.992188 C 30.527344 6.914062 30.59375 6.867188 30.769531 6.421875 C 30.886719 6.144531 30.976562 5.894531 30.976562 5.867188 C 30.976562 5.742188 29.09375 5.832031 28.480469 5.980469 Z M 30.4375 6.144531 C 30.375 6.460938 30.078125 6.5 30.078125 6.195312 C 30.078125 6.046875 30.15625 5.929688 30.285156 5.929688 C 30.398438 5.929688 30.464844 6.019531 30.4375 6.144531 Z M 29.03125 6.347656 C 29.082031 6.601562 28.710938 6.777344 28.519531 6.585938 C 28.328125 6.398438 28.503906 6.03125 28.761719 6.082031 C 28.890625 6.109375 29.003906 6.222656 29.03125 6.347656 Z M 29.796875 6.273438 C 29.773438 6.398438 29.671875 6.5 29.566406 6.5 C 29.464844 6.5 29.363281 6.398438 29.335938 6.273438 C 29.3125 6.121094 29.375 6.058594 29.566406 6.058594 C 29.761719 6.058594 29.824219 6.121094 29.796875 6.273438 Z M 28.261719 6.664062 C 28.3125 7.015625 27.957031 7.179688 27.699219 6.914062 C 27.441406 6.664062 27.609375 6.285156 27.957031 6.335938 C 28.121094 6.359375 28.238281 6.488281 28.261719 6.664062 Z M 27.609375 7.15625 C 27.660156 7.28125 27.597656 7.433594 27.441406 7.558594 C 27.300781 7.671875 27.210938 7.875 27.238281 8.039062 C 27.289062 8.390625 26.828125 8.671875 26.546875 8.441406 C 26.265625 8.214844 26.378906 7.773438 26.714844 7.722656 C 26.957031 7.6875 26.980469 7.648438 26.878906 7.433594 C 26.804688 7.292969 26.777344 7.128906 26.816406 7.066406 C 26.945312 6.867188 27.519531 6.929688 27.609375 7.15625 Z M 27.199219 9.085938 C 27.199219 9.339844 27.125 9.414062 26.867188 9.441406 C 26.507812 9.476562 26.316406 9.238281 26.457031 8.882812 C 26.496094 8.769531 26.648438 8.707031 26.867188 8.734375 C 27.125 8.757812 27.199219 8.835938 27.199219 9.085938 Z M 27.316406 9.667969 C 27.570312 9.769531 27.585938 10.148438 27.328125 10.347656 C 27.058594 10.5625 26.753906 10.410156 26.753906 10.058594 C 26.753906 9.617188 26.90625 9.515625 27.316406 9.667969 Z M 27.75 10.878906 C 27.699219 11.230469 27.210938 11.34375 27.085938 11.042969 C 26.96875 10.738281 27.097656 10.601562 27.46875 10.601562 C 27.738281 10.601562 27.789062 10.652344 27.75 10.878906 Z M 27.96875 11.484375 C 28.082031 11.671875 27.789062 11.988281 27.570312 11.902344 C 27.289062 11.800781 27.339844 11.359375 27.636719 11.359375 C 27.777344 11.359375 27.929688 11.421875 27.96875 11.484375 Z M 27.96875 11.484375 "/>
<path style=" stroke:none;fill-rule:nonzero;fill:rgb(0%,0%,0%);fill-opacity:1;" d="M 32.820312 6.007812 C 32.882812 6.132812 32.972656 6.398438 33.050781 6.574219 C 33.140625 6.839844 33.265625 6.929688 33.664062 6.980469 C 34.34375 7.066406 35.058594 7.433594 35.367188 7.851562 C 35.777344 8.390625 35.761719 9.226562 35.339844 11.09375 C 35.136719 12.027344 34.980469 12.847656 35.019531 12.898438 C 35.070312 12.960938 35.210938 12.921875 35.339844 12.796875 C 35.480469 12.683594 35.621094 12.609375 35.660156 12.644531 C 35.699219 12.683594 35.507812 12.847656 35.238281 13.011719 C 34.574219 13.429688 33.332031 13.503906 32.910156 13.164062 C 32.703125 13 32.628906 12.835938 32.679688 12.707031 C 32.78125 12.445312 33.152344 12.429688 33.152344 12.683594 C 33.152344 12.921875 33.332031 12.921875 33.585938 12.671875 C 33.996094 12.265625 33.753906 11.359375 33.230469 11.359375 C 32.921875 11.359375 32.382812 11.835938 32.382812 12.117188 C 32.382812 12.203125 32.34375 12.253906 32.308594 12.214844 C 32.269531 12.164062 32.332031 11.863281 32.460938 11.507812 L 32.691406 10.890625 L 32.332031 10.296875 C 32.140625 9.984375 31.949219 9.71875 31.898438 9.71875 C 31.847656 9.71875 31.640625 9.96875 31.4375 10.285156 L 31.078125 10.867188 L 31.347656 11.558594 C 31.707031 12.480469 31.691406 12.695312 31.335938 11.988281 C 31.105469 11.546875 30.964844 11.410156 30.679688 11.382812 C 30.066406 11.308594 29.722656 12.117188 30.132812 12.644531 C 30.335938 12.921875 30.59375 12.9375 30.59375 12.671875 C 30.59375 12.378906 31.027344 12.507812 31.078125 12.820312 C 31.15625 13.378906 29.695312 13.578125 28.800781 13.125 C 28.53125 12.984375 28.273438 12.820312 28.222656 12.746094 C 28.082031 12.519531 27.929688 12.621094 27.839844 13 C 27.738281 13.464844 27.136719 13.96875 26.558594 14.085938 C 25.996094 14.183594 25.726562 14.085938 25.726562 13.769531 C 25.726562 13.441406 25.945312 13.3125 26.1875 13.515625 C 26.355469 13.640625 26.40625 13.640625 26.507812 13.492188 C 26.6875 13.214844 26.648438 12.9375 26.355469 12.570312 C 25.84375 11.925781 25.230469 12.242188 25.203125 13.148438 C 25.191406 13.515625 25.175781 13.492188 25.035156 12.9375 C 24.945312 12.582031 24.832031 12.214844 24.78125 12.117188 C 24.730469 12.015625 24.792969 12.050781 24.933594 12.203125 C 25.175781 12.480469 25.191406 12.480469 25.40625 12.242188 C 25.625 12.015625 25.625 11.953125 25.421875 11.257812 C 25.113281 10.171875 25.152344 9.363281 25.523438 8.820312 C 25.703125 8.570312 25.882812 8.203125 25.933594 8 C 25.984375 7.800781 26.125 7.445312 26.265625 7.21875 C 26.523438 6.816406 26.523438 6.816406 26.253906 6.816406 C 25.777344 6.816406 24.5625 7.332031 24.101562 7.734375 C 23.578125 8.191406 23.296875 8.757812 23.296875 9.390625 C 23.296875 10.109375 23.566406 11.117188 23.820312 11.371094 C 24.050781 11.597656 24.050781 11.609375 23.808594 11.574219 C 23.679688 11.558594 23.566406 11.585938 23.566406 11.636719 C 23.511719 12.140625 23.628906 12.457031 24.113281 13.136719 C 24.894531 14.273438 25.140625 14.765625 24.984375 14.917969 C 24.832031 15.070312 24.933594 15.398438 25.140625 15.398438 C 25.214844 15.398438 25.433594 15.800781 25.613281 16.28125 C 25.804688 16.773438 25.90625 17.164062 25.84375 17.164062 C 25.777344 17.164062 25.726562 17.289062 25.726562 17.429688 C 25.726562 17.730469 25.585938 17.742188 27.96875 17.226562 C 29.285156 16.9375 29.824219 16.886719 31.679688 16.875 C 33.867188 16.859375 34.699219 16.960938 37.03125 17.503906 C 37.671875 17.65625 37.925781 17.679688 38.042969 17.566406 C 38.144531 17.464844 38.144531 17.378906 38.042969 17.25 C 37.835938 17.011719 38.375 15.433594 38.695312 15.359375 C 39.027344 15.257812 38.949219 14.929688 38.566406 14.789062 C 38.246094 14.675781 38.234375 14.664062 38.503906 14.652344 C 38.65625 14.640625 38.785156 14.589844 38.785156 14.527344 C 38.785156 14.460938 39.105469 13.957031 39.488281 13.402344 C 40.011719 12.632812 40.191406 12.265625 40.191406 11.9375 C 40.191406 11.6875 40.140625 11.484375 40.078125 11.484375 C 40.011719 11.484375 40.039062 11.308594 40.152344 11.105469 C 40.257812 10.890625 40.371094 10.3125 40.410156 9.804688 C 40.488281 8.746094 40.34375 8.34375 39.628906 7.734375 C 39.066406 7.242188 37.375 6.601562 37.375 6.878906 C 37.375 6.902344 37.492188 7.117188 37.632812 7.34375 C 37.773438 7.570312 37.886719 7.875 37.886719 8.015625 C 37.886719 8.152344 38.066406 8.519531 38.273438 8.820312 C 38.71875 9.476562 38.746094 9.730469 38.398438 11.03125 C 38.15625 11.976562 38.15625 12 38.398438 12.242188 C 38.628906 12.46875 38.644531 12.46875 38.824219 12.203125 C 39 11.953125 39 11.976562 38.886719 12.492188 C 38.59375 13.804688 38.554688 13.871094 38.539062 13.175781 C 38.527344 12.519531 38.375 12.242188 38.003906 12.242188 C 37.476562 12.242188 36.964844 13.085938 37.234375 13.503906 C 37.335938 13.65625 37.402344 13.65625 37.53125 13.527344 C 37.8125 13.25 38.042969 13.351562 37.992188 13.71875 C 37.953125 14.035156 37.902344 14.070312 37.503906 14.058594 C 36.773438 14.046875 36.3125 13.757812 36.007812 13.125 C 35.6875 12.480469 35.660156 12.367188 35.828125 12.367188 C 35.890625 12.367188 35.980469 12.53125 36.03125 12.746094 C 36.082031 12.949219 36.160156 13.125 36.210938 13.125 C 36.363281 13.125 37.515625 10.109375 37.644531 9.351562 C 37.863281 8.015625 37.542969 7.078125 36.644531 6.523438 C 35.878906 6.058594 35.355469 5.917969 33.996094 5.84375 C 32.78125 5.765625 32.730469 5.78125 32.820312 6.007812 Z M 33.742188 6.070312 C 33.867188 6.285156 33.574219 6.523438 33.394531 6.347656 C 33.242188 6.195312 33.34375 5.929688 33.535156 5.929688 C 33.601562 5.929688 33.691406 5.996094 33.742188 6.070312 Z M 34.507812 6.070312 C 34.636719 6.285156 34.214844 6.652344 34.035156 6.472656 C 33.945312 6.386719 33.921875 6.234375 33.957031 6.132812 C 34.046875 5.90625 34.378906 5.867188 34.507812 6.070312 Z M 35.367188 6.234375 C 35.457031 6.472656 35.136719 6.738281 34.878906 6.636719 C 34.6875 6.5625 34.625 6.285156 34.777344 6.144531 C 34.929688 5.996094 35.300781 6.058594 35.367188 6.234375 Z M 36.160156 6.6875 C 36.160156 6.914062 36.082031 7.015625 35.867188 7.042969 C 35.699219 7.066406 35.546875 7.003906 35.507812 6.890625 C 35.378906 6.5625 35.558594 6.285156 35.867188 6.335938 C 36.082031 6.359375 36.160156 6.460938 36.160156 6.6875 Z M 36.941406 7.128906 C 36.992188 7.230469 36.953125 7.40625 36.863281 7.507812 C 36.734375 7.660156 36.75 7.699219 36.964844 7.699219 C 37.351562 7.699219 37.566406 8.128906 37.300781 8.378906 C 37.042969 8.632812 36.929688 8.632812 36.671875 8.378906 C 36.558594 8.265625 36.503906 8.078125 36.542969 7.9375 C 36.59375 7.785156 36.558594 7.671875 36.429688 7.621094 C 36.210938 7.546875 36.058594 7.21875 36.171875 7.054688 C 36.289062 6.867188 36.863281 6.929688 36.941406 7.128906 Z M 25.792969 7.320312 C 25.84375 7.394531 25.804688 7.546875 25.714844 7.648438 C 25.574219 7.8125 25.535156 7.8125 25.371094 7.648438 C 25.265625 7.546875 25.230469 7.40625 25.265625 7.332031 C 25.382812 7.15625 25.691406 7.15625 25.792969 7.320312 Z M 38.527344 7.382812 C 38.527344 7.496094 38.644531 7.570312 38.824219 7.570312 C 39.21875 7.570312 39.308594 7.6875 39.15625 7.964844 C 38.988281 8.277344 38.644531 8.265625 38.566406 7.9375 C 38.527344 7.800781 38.425781 7.710938 38.324219 7.75 C 38.234375 7.785156 38.09375 7.722656 38.003906 7.621094 C 37.875 7.457031 37.875 7.40625 38.027344 7.308594 C 38.296875 7.144531 38.527344 7.167969 38.527344 7.382812 Z M 25.214844 7.75 C 25.214844 8.027344 24.910156 8.226562 24.730469 8.050781 C 24.472656 7.800781 24.550781 7.570312 24.894531 7.570312 C 25.089844 7.570312 25.214844 7.648438 25.214844 7.75 Z M 24.640625 8.292969 C 24.691406 8.429688 24.640625 8.582031 24.488281 8.707031 C 24.34375 8.820312 24.269531 9.023438 24.292969 9.199219 C 24.359375 9.578125 24.167969 9.769531 23.820312 9.65625 C 23.5 9.554688 23.449219 8.984375 23.742188 8.882812 C 23.871094 8.835938 23.910156 8.71875 23.871094 8.570312 C 23.820312 8.441406 23.832031 8.277344 23.871094 8.203125 C 24 7.988281 24.539062 8.0625 24.640625 8.292969 Z M 39.859375 8.457031 C 39.847656 8.621094 39.960938 8.859375 40.113281 8.972656 C 40.332031 9.148438 40.359375 9.238281 40.242188 9.425781 C 40.167969 9.554688 39.960938 9.65625 39.796875 9.65625 C 39.539062 9.65625 39.488281 9.589844 39.488281 9.277344 C 39.488281 9.0625 39.386719 8.808594 39.257812 8.707031 C 38.925781 8.429688 39.105469 8.050781 39.539062 8.101562 C 39.796875 8.128906 39.871094 8.203125 39.859375 8.457031 Z M 37.3125 9.085938 C 37.3125 9.339844 37.234375 9.414062 36.953125 9.441406 C 36.722656 9.464844 36.582031 9.414062 36.53125 9.289062 C 36.390625 8.933594 36.582031 8.683594 36.953125 8.734375 C 37.234375 8.757812 37.3125 8.835938 37.3125 9.085938 Z M 37.082031 10.148438 C 36.964844 10.4375 36.632812 10.539062 36.414062 10.347656 C 36.132812 10.121094 36.1875 9.855469 36.519531 9.730469 C 36.863281 9.589844 37.195312 9.84375 37.082031 10.148438 Z M 24.371094 10.046875 C 24.460938 10.285156 24.242188 10.601562 24 10.601562 C 23.910156 10.601562 23.769531 10.511719 23.679688 10.410156 C 23.550781 10.261719 23.550781 10.183594 23.679688 10.03125 C 23.886719 9.78125 24.269531 9.792969 24.371094 10.046875 Z M 40.113281 10.046875 C 40.203125 10.273438 39.988281 10.601562 39.757812 10.601562 C 39.460938 10.601562 39.296875 10.324219 39.4375 10.070312 C 39.589844 9.792969 40.011719 9.769531 40.113281 10.046875 Z M 36.734375 10.878906 C 36.734375 11.015625 36.632812 11.15625 36.503906 11.195312 C 36.339844 11.230469 36.273438 11.332031 36.3125 11.535156 C 36.390625 11.875 36.058594 12.066406 35.839844 11.800781 C 35.738281 11.671875 35.75 11.585938 35.902344 11.445312 C 36.007812 11.332031 36.058594 11.15625 36.007812 11.03125 C 35.957031 10.902344 36.007812 10.753906 36.148438 10.652344 C 36.441406 10.449219 36.734375 10.5625 36.734375 10.878906 Z M 32.203125 10.789062 C 32.28125 10.992188 32.050781 11.359375 31.859375 11.359375 C 31.707031 11.359375 31.460938 10.867188 31.550781 10.726562 C 31.679688 10.539062 32.128906 10.574219 32.203125 10.789062 Z M 24.449219 11.042969 C 24.449219 11.269531 24.382812 11.359375 24.203125 11.359375 C 24.0625 11.359375 23.910156 11.296875 23.871094 11.230469 C 23.730469 11.003906 23.910156 10.726562 24.191406 10.726562 C 24.382812 10.726562 24.449219 10.816406 24.449219 11.042969 Z M 39.910156 11.015625 C 39.960938 11.269531 39.589844 11.445312 39.398438 11.257812 C 39.207031 11.066406 39.386719 10.703125 39.640625 10.753906 C 39.769531 10.777344 39.886719 10.890625 39.910156 11.015625 Z M 24.191406 12.230469 C 24.359375 12.558594 24.359375 12.621094 24.140625 12.621094 C 23.972656 12.621094 23.808594 12.367188 23.808594 12.101562 C 23.808594 11.902344 24.050781 11.976562 24.191406 12.230469 Z M 39.9375 12.140625 C 39.9375 12.417969 39.71875 12.65625 39.566406 12.570312 C 39.460938 12.507812 39.460938 12.40625 39.550781 12.230469 C 39.707031 11.964844 39.9375 11.902344 39.9375 12.140625 Z M 28.441406 13.441406 C 28.441406 13.503906 28.378906 13.578125 28.300781 13.605469 C 28.222656 13.628906 28.160156 13.554688 28.160156 13.441406 C 28.160156 13.328125 28.222656 13.25 28.300781 13.277344 C 28.378906 13.300781 28.441406 13.378906 28.441406 13.441406 Z M 35.585938 13.503906 C 35.585938 13.566406 35.53125 13.628906 35.457031 13.628906 C 35.390625 13.628906 35.328125 13.566406 35.328125 13.503906 C 35.328125 13.429688 35.390625 13.378906 35.457031 13.378906 C 35.53125 13.378906 35.585938 13.429688 35.585938 13.503906 Z M 31.21875 13.933594 C 31.195312 13.957031 30.503906 14.007812 29.695312 14.046875 C 28.890625 14.070312 28.480469 14.058594 28.800781 14.007812 C 29.402344 13.921875 31.308594 13.84375 31.21875 13.933594 Z M 33.894531 13.96875 C 33.625 13.996094 33.191406 13.996094 32.933594 13.96875 C 32.664062 13.945312 32.882812 13.921875 33.40625 13.921875 C 33.933594 13.921875 34.152344 13.945312 33.894531 13.96875 Z M 35.300781 14.097656 C 35.175781 14.121094 34.945312 14.121094 34.789062 14.097656 C 34.625 14.070312 34.726562 14.046875 35.007812 14.046875 C 35.289062 14.035156 35.417969 14.058594 35.300781 14.097656 Z M 28.070312 14.222656 C 27.980469 14.25 27.800781 14.25 27.6875 14.222656 C 27.558594 14.183594 27.636719 14.160156 27.839844 14.160156 C 28.058594 14.160156 28.148438 14.183594 28.070312 14.222656 Z M 36.132812 14.222656 C 36.042969 14.25 35.867188 14.25 35.75 14.222656 C 35.621094 14.183594 35.699219 14.160156 35.902344 14.160156 C 36.121094 14.160156 36.210938 14.183594 36.132812 14.222656 Z M 27.070312 14.386719 C 26.867188 14.4375 26.574219 14.488281 26.433594 14.488281 C 26.226562 14.488281 26.238281 14.460938 26.496094 14.386719 C 26.675781 14.335938 26.957031 14.285156 27.136719 14.285156 C 27.417969 14.285156 27.417969 14.296875 27.070312 14.386719 Z M 37.3125 14.386719 L 37.566406 14.5 L 37.3125 14.488281 C 37.171875 14.488281 36.890625 14.4375 36.671875 14.386719 L 36.289062 14.285156 L 36.671875 14.285156 C 36.890625 14.285156 37.171875 14.324219 37.3125 14.386719 Z M 26.074219 14.589844 C 26.035156 14.625 25.921875 14.640625 25.832031 14.601562 C 25.726562 14.5625 25.765625 14.527344 25.90625 14.527344 C 26.046875 14.511719 26.125 14.550781 26.074219 14.589844 Z M 32.804688 14.601562 C 32.292969 14.625 31.4375 14.625 30.886719 14.601562 C 30.335938 14.589844 30.757812 14.5625 31.808594 14.5625 C 32.871094 14.5625 33.320312 14.589844 32.804688 14.601562 Z M 38.054688 14.601562 C 37.964844 14.625 37.8125 14.625 37.734375 14.601562 C 37.644531 14.5625 37.707031 14.539062 37.886719 14.539062 C 38.066406 14.539062 38.132812 14.5625 38.054688 14.601562 Z M 25.5625 14.714844 C 25.523438 14.753906 25.40625 14.765625 25.320312 14.726562 C 25.214844 14.691406 25.253906 14.652344 25.394531 14.652344 C 25.535156 14.640625 25.613281 14.675781 25.5625 14.714844 Z M 29.542969 14.726562 C 29.414062 14.753906 29.183594 14.753906 29.03125 14.726562 C 28.863281 14.703125 28.964844 14.675781 29.246094 14.675781 C 29.53125 14.664062 29.65625 14.691406 29.542969 14.726562 Z M 34.789062 14.726562 C 34.664062 14.753906 34.457031 14.753906 34.34375 14.726562 C 34.214844 14.691406 34.316406 14.664062 34.558594 14.664062 C 34.804688 14.664062 34.90625 14.691406 34.789062 14.726562 Z M 28.453125 14.855469 C 28.363281 14.878906 28.1875 14.878906 28.070312 14.855469 C 27.941406 14.816406 28.019531 14.789062 28.222656 14.789062 C 28.441406 14.789062 28.53125 14.816406 28.453125 14.855469 Z M 35.75 14.855469 C 35.660156 14.878906 35.507812 14.878906 35.429688 14.855469 C 35.339844 14.816406 35.40625 14.789062 35.585938 14.789062 C 35.761719 14.789062 35.828125 14.816406 35.75 14.855469 Z M 27.558594 14.980469 C 27.46875 15.003906 27.316406 15.003906 27.238281 14.980469 C 27.148438 14.941406 27.210938 14.917969 27.390625 14.917969 C 27.570312 14.917969 27.636719 14.941406 27.558594 14.980469 Z M 34.046875 15.082031 C 34.046875 15.183594 33.957031 15.269531 33.855469 15.269531 C 33.652344 15.269531 33.601562 15.117188 33.753906 14.980469 C 33.894531 14.828125 34.046875 14.878906 34.046875 15.082031 Z M 36.519531 14.980469 C 36.429688 15.003906 36.273438 15.003906 36.199219 14.980469 C 36.109375 14.941406 36.171875 14.917969 36.351562 14.917969 C 36.53125 14.917969 36.59375 14.941406 36.519531 14.980469 Z M 26.96875 15.09375 C 26.929688 15.132812 26.816406 15.144531 26.726562 15.105469 C 26.625 15.070312 26.664062 15.03125 26.804688 15.03125 C 26.945312 15.019531 27.019531 15.054688 26.96875 15.09375 Z M 30.144531 15.144531 C 30.105469 15.207031 29.976562 15.269531 29.875 15.269531 C 29.773438 15.269531 29.695312 15.207031 29.695312 15.144531 C 29.695312 15.070312 29.8125 15.019531 29.964844 15.019531 C 30.105469 15.019531 30.183594 15.070312 30.144531 15.144531 Z M 32.523438 15.15625 C 33.203125 15.382812 33.203125 15.472656 32.523438 15.6875 C 31.921875 15.875 31.832031 15.875 31.207031 15.660156 C 30.476562 15.410156 30.464844 15.445312 31.359375 15.105469 C 31.679688 14.992188 32.0625 15.003906 32.523438 15.15625 Z M 37.210938 15.09375 C 37.171875 15.132812 37.054688 15.144531 36.964844 15.105469 C 36.863281 15.070312 36.902344 15.03125 37.042969 15.03125 C 37.183594 15.019531 37.261719 15.054688 37.210938 15.09375 Z M 29.183594 15.332031 C 29.503906 15.710938 29.042969 16.242188 28.53125 16.089844 C 27.980469 15.914062 28.148438 15.144531 28.734375 15.144531 C 28.890625 15.144531 29.09375 15.234375 29.183594 15.332031 Z M 35.429688 15.296875 C 35.839844 15.699219 35.289062 16.292969 34.789062 15.976562 C 34.523438 15.824219 34.484375 15.320312 34.726562 15.234375 C 35.007812 15.117188 35.277344 15.144531 35.429688 15.296875 Z M 25.816406 15.347656 C 25.777344 15.382812 25.664062 15.398438 25.574219 15.359375 C 25.472656 15.320312 25.511719 15.28125 25.652344 15.28125 C 25.792969 15.269531 25.867188 15.308594 25.816406 15.347656 Z M 27.777344 15.460938 C 27.777344 15.5625 27.6875 15.648438 27.585938 15.648438 C 27.480469 15.648438 27.390625 15.5625 27.390625 15.460938 C 27.390625 15.359375 27.480469 15.269531 27.585938 15.269531 C 27.6875 15.269531 27.777344 15.359375 27.777344 15.460938 Z M 36.351562 15.460938 C 36.351562 15.5625 36.300781 15.648438 36.238281 15.648438 C 36.070312 15.648438 35.957031 15.445312 36.058594 15.347656 C 36.199219 15.207031 36.351562 15.269531 36.351562 15.460938 Z M 30.105469 15.839844 C 30.105469 15.902344 30.042969 15.976562 29.964844 16.003906 C 29.886719 16.027344 29.824219 15.953125 29.824219 15.839844 C 29.824219 15.726562 29.886719 15.648438 29.964844 15.675781 C 30.042969 15.699219 30.105469 15.773438 30.105469 15.839844 Z M 33.984375 15.761719 C 34.074219 15.914062 33.832031 16.066406 33.664062 15.964844 C 33.523438 15.875 33.613281 15.648438 33.792969 15.648438 C 33.855469 15.648438 33.933594 15.699219 33.984375 15.761719 Z M 26.929688 15.890625 C 27.148438 15.964844 27.109375 16.015625 26.699219 16.253906 C 26.136719 16.582031 26.035156 16.59375 25.933594 16.332031 C 25.765625 15.902344 25.84375 15.773438 26.277344 15.789062 C 26.496094 15.789062 26.804688 15.839844 26.929688 15.890625 Z M 38.015625 15.824219 C 38.015625 15.839844 37.953125 16.039062 37.875 16.253906 L 37.746094 16.644531 L 37.171875 16.304688 C 36.644531 15.988281 36.621094 15.964844 36.890625 15.875 C 37.210938 15.789062 38.015625 15.75 38.015625 15.824219 Z M 36.222656 16.167969 C 36.222656 16.230469 36.132812 16.28125 36.03125 16.28125 C 35.839844 16.28125 35.777344 16.128906 35.917969 15.988281 C 36.019531 15.890625 36.222656 16.003906 36.222656 16.167969 Z M 28.03125 16.078125 C 28.03125 16.101562 27.941406 16.191406 27.839844 16.28125 C 27.6875 16.40625 27.648438 16.40625 27.648438 16.230469 C 27.648438 16.117188 27.738281 16.027344 27.839844 16.027344 C 27.941406 16.027344 28.03125 16.054688 28.03125 16.078125 Z M 31.460938 16.242188 C 31.257812 16.265625 30.949219 16.265625 30.757812 16.242188 C 30.554688 16.21875 30.71875 16.191406 31.105469 16.191406 C 31.488281 16.191406 31.65625 16.21875 31.460938 16.242188 Z M 33.125 16.242188 C 33 16.265625 32.769531 16.265625 32.613281 16.242188 C 32.449219 16.21875 32.550781 16.191406 32.832031 16.191406 C 33.113281 16.179688 33.242188 16.203125 33.125 16.242188 Z M 29.796875 16.367188 C 29.671875 16.394531 29.464844 16.394531 29.351562 16.367188 C 29.222656 16.332031 29.324219 16.304688 29.566406 16.304688 C 29.8125 16.304688 29.914062 16.332031 29.796875 16.367188 Z M 34.40625 16.367188 C 34.277344 16.394531 34.046875 16.394531 33.894531 16.367188 C 33.726562 16.34375 33.832031 16.316406 34.113281 16.316406 C 34.394531 16.304688 34.523438 16.332031 34.40625 16.367188 Z M 28.839844 16.496094 C 28.75 16.519531 28.59375 16.519531 28.519531 16.496094 C 28.429688 16.457031 28.492188 16.429688 28.671875 16.429688 C 28.851562 16.429688 28.914062 16.457031 28.839844 16.496094 Z M 35.238281 16.496094 C 35.148438 16.519531 34.996094 16.519531 34.917969 16.496094 C 34.828125 16.457031 34.894531 16.429688 35.070312 16.429688 C 35.25 16.429688 35.316406 16.457031 35.238281 16.496094 Z M 28.121094 16.609375 C 28.082031 16.644531 27.96875 16.660156 27.878906 16.621094 C 27.777344 16.582031 27.8125 16.546875 27.957031 16.546875 C 28.097656 16.53125 28.171875 16.570312 28.121094 16.609375 Z M 36.007812 16.621094 C 35.917969 16.644531 35.761719 16.644531 35.6875 16.621094 C 35.597656 16.582031 35.660156 16.558594 35.839844 16.558594 C 36.019531 16.558594 36.082031 16.582031 36.007812 16.621094 Z M 27.558594 16.746094 C 27.46875 16.773438 27.316406 16.773438 27.238281 16.746094 C 27.148438 16.710938 27.210938 16.683594 27.390625 16.683594 C 27.570312 16.683594 27.636719 16.710938 27.558594 16.746094 Z M 36.570312 16.734375 C 36.53125 16.773438 36.414062 16.785156 36.328125 16.746094 C 36.222656 16.710938 36.261719 16.671875 36.402344 16.671875 C 36.542969 16.660156 36.621094 16.695312 36.570312 16.734375 Z M 37.082031 16.859375 C 37.042969 16.898438 36.929688 16.910156 36.839844 16.875 C 36.734375 16.835938 36.773438 16.796875 36.914062 16.796875 C 37.054688 16.785156 37.132812 16.824219 37.082031 16.859375 Z M 37.082031 16.859375 "/>
<path style=" stroke:none;fill-rule:nonzero;fill:rgb(0%,0%,0%);fill-opacity:1;" d="M 19.96875 11.066406 C 19.789062 11.09375 19.367188 11.207031 19.007812 11.320312 C 16.84375 11.988281 15.488281 13.339844 15.488281 14.804688 C 15.488281 15.421875 15.527344 15.359375 13.695312 17.792969 C 13.464844 18.109375 13.464844 18.097656 13.644531 17.351562 C 13.734375 16.9375 13.824219 16.167969 13.824219 15.648438 C 13.824219 14.703125 13.621094 12.582031 13.503906 12.253906 C 13.453125 12.140625 13.261719 12.304688 12.941406 12.695312 C 11.019531 15.082031 10.523438 17.542969 11.699219 18.878906 L 12.121094 19.359375 L 13.019531 18.804688 L 11.902344 20.988281 C 10.6875 23.371094 9.921875 25.503906 9.445312 27.777344 C 9.191406 29.027344 9.152344 29.59375 9.152344 32.003906 C 9.152344 34.605469 9.140625 34.757812 8.972656 34.238281 C 8.859375 33.886719 8.460938 33.304688 7.871094 32.648438 C 6.734375 31.359375 5.324219 30.035156 5.105469 30.035156 C 4.992188 30.035156 4.980469 30.289062 5.03125 31.082031 C 5.261719 33.910156 6.59375 35.953125 8.359375 36.132812 C 8.921875 36.195312 8.984375 36.183594 9.089844 35.890625 C 9.164062 35.714844 9.214844 35.425781 9.230469 35.234375 C 9.230469 35.046875 9.371094 35.488281 9.535156 36.21875 C 9.957031 37.988281 10.394531 39.375 11.160156 41.269531 C 12.75 45.257812 14.769531 47.832031 17.921875 49.886719 C 19.507812 50.921875 20.339844 51.339844 22.808594 52.375 C 25.5625 53.535156 30.875 56.058594 30.757812 56.160156 C 30.617188 56.285156 27.585938 57.105469 26.113281 57.421875 C 25.445312 57.5625 24.769531 57.699219 24.613281 57.738281 C 24.203125 57.824219 24.242188 58.066406 24.742188 58.507812 C 25.546875 59.238281 25.394531 59.238281 27.40625 58.570312 C 28.414062 58.230469 29.953125 57.6875 30.824219 57.359375 L 32.398438 56.765625 L 33.382812 57.207031 C 34.878906 57.875 36.800781 58.558594 38.132812 58.886719 L 39.347656 59.1875 L 39.640625 58.847656 C 39.796875 58.644531 39.988281 58.332031 40.050781 58.140625 C 40.203125 57.738281 40.308594 57.789062 38.785156 57.496094 C 37.183594 57.183594 33.894531 56.261719 34.007812 56.148438 C 34.0625 56.097656 34.867188 55.730469 35.777344 55.339844 C 36.699219 54.9375 37.773438 54.457031 38.167969 54.253906 C 38.578125 54.050781 38.976562 53.886719 39.066406 53.886719 C 39.15625 53.886719 39.347656 54.101562 39.488281 54.355469 C 39.972656 55.25 40.910156 55.65625 42.507812 55.65625 C 43.839844 55.65625 46.003906 55.050781 46.964844 54.417969 C 47.359375 54.140625 43.902344 53.144531 42.175781 53.015625 L 40.894531 52.929688 L 42.328125 52.222656 C 45.324219 50.707031 47.054688 49.546875 48.574219 48.007812 C 51.597656 44.976562 53.976562 39.589844 54.605469 34.390625 C 55.167969 29.734375 53.875 24.507812 50.917969 19.5625 L 50.507812 18.867188 L 50.980469 19.269531 C 51.25 19.5 51.519531 19.6875 51.570312 19.6875 C 51.636719 19.6875 51.867188 19.484375 52.070312 19.246094 C 53.234375 17.957031 52.824219 15.699219 51.007812 13.265625 C 50.558594 12.671875 50.378906 12.492188 50.304688 12.632812 C 50.238281 12.734375 50.136719 13.515625 50.0625 14.398438 C 49.90625 16.152344 50.035156 17.78125 50.367188 18.425781 C 50.6875 19.042969 50.484375 18.855469 49.90625 18.007812 C 49.613281 17.578125 49.113281 16.898438 48.804688 16.507812 C 48.320312 15.875 48.257812 15.710938 48.257812 15.144531 C 48.257812 14.765625 48.152344 14.3125 48.011719 14.035156 C 47.679688 13.378906 46.769531 12.582031 45.835938 12.117188 C 45.019531 11.710938 43.46875 11.296875 43.25 11.433594 C 43.085938 11.535156 43.992188 13.1875 44.8125 14.285156 C 45.582031 15.308594 46.398438 15.863281 47.269531 15.976562 C 47.886719 16.066406 47.910156 16.089844 48.769531 17.214844 C 49.867188 18.679688 50.929688 20.417969 51.726562 22.046875 C 52.070312 22.753906 52.351562 23.371094 52.351562 23.398438 C 52.351562 23.4375 52.109375 23.207031 51.828125 22.90625 C 51.53125 22.589844 50.945312 22.160156 50.507812 21.960938 C 49.382812 21.417969 47.359375 21.023438 47.179688 21.316406 C 47.140625 21.378906 47.398438 21.820312 47.742188 22.3125 C 49.089844 24.191406 50.378906 25.113281 51.671875 25.113281 C 52.289062 25.113281 52.351562 25.089844 52.429688 24.796875 C 52.46875 24.621094 52.480469 24.320312 52.453125 24.105469 C 52.351562 23.4375 52.582031 23.839844 52.980469 25.027344 C 53.453125 26.464844 53.824219 27.890625 54.027344 29.214844 C 54.273438 30.691406 54.246094 34.25 53.964844 35.691406 C 53.402344 38.707031 51.941406 42.59375 50.523438 44.851562 L 50.203125 45.34375 L 50.265625 44.472656 C 50.316406 43.792969 50.265625 43.425781 50.046875 42.796875 C 49.753906 41.910156 48.972656 40.320312 48.78125 40.207031 C 48.628906 40.105469 48.039062 41.695312 47.859375 42.71875 C 47.65625 43.917969 47.757812 45.242188 48.113281 45.976562 C 48.433594 46.632812 48.679688 46.707031 49.253906 46.355469 L 49.601562 46.125 L 49.320312 46.503906 C 48.691406 47.363281 45.824219 49.925781 45.824219 49.621094 C 45.824219 49.558594 45.902344 49.433594 46.003906 49.359375 C 46.296875 49.117188 46.707031 48.019531 46.835938 47.160156 C 46.964844 46.316406 46.824219 44.601562 46.617188 44.398438 C 46.464844 44.246094 45.363281 45.445312 44.621094 46.554688 C 43.851562 47.691406 43.570312 48.738281 43.777344 49.621094 L 43.929688 50.253906 L 44.492188 50.203125 C 44.800781 50.179688 45.054688 50.179688 45.054688 50.191406 C 45.054688 50.328125 40.753906 52.5 40.472656 52.5 C 40.433594 52.5 40.628906 52.261719 40.921875 51.957031 C 41.511719 51.363281 41.996094 50.480469 42.292969 49.472656 C 42.496094 48.75 42.636719 47.578125 42.523438 47.578125 C 42.378906 47.578125 41.242188 48.285156 40.574219 48.789062 C 39.167969 49.835938 38.453125 50.871094 38.308594 51.996094 C 38.246094 52.589844 38.246094 52.625 38.605469 52.765625 C 38.808594 52.839844 39.179688 52.867188 39.425781 52.828125 L 39.871094 52.765625 L 39.527344 52.941406 C 38.988281 53.230469 35.289062 54.683594 33.714844 55.226562 L 32.28125 55.71875 L 31.410156 55.414062 C 30.195312 55.011719 25.984375 53.359375 24.933594 52.890625 C 24.0625 52.5 23.832031 52.335938 24.320312 52.460938 C 24.460938 52.5 24.78125 52.488281 25.023438 52.449219 C 25.445312 52.375 25.472656 52.335938 25.472656 51.882812 C 25.472656 50.949219 25.101562 50.226562 24.140625 49.269531 C 23.066406 48.195312 21.121094 46.910156 21.121094 47.25 C 21.121094 47.273438 21.210938 47.765625 21.324219 48.347656 C 21.582031 49.671875 22.09375 50.796875 22.785156 51.539062 C 23.089844 51.855469 23.28125 52.121094 23.230469 52.121094 C 23.117188 52.121094 19.175781 50.140625 18.894531 49.9375 C 18.714844 49.8125 18.777344 49.785156 19.25 49.824219 C 19.8125 49.875 19.828125 49.875 19.957031 49.382812 C 20.148438 48.738281 20.132812 48.375 19.902344 47.628906 C 19.6875 46.898438 18.664062 45.371094 17.816406 44.523438 C 17.089844 43.78125 17.023438 43.84375 16.933594 45.546875 C 16.84375 46.960938 17.074219 47.929688 17.675781 48.800781 C 17.867188 49.105469 18.007812 49.34375 17.972656 49.34375 C 17.636719 49.34375 14.644531 46.632812 14.324219 46.039062 C 14.195312 45.8125 14.207031 45.796875 14.578125 45.988281 C 15.207031 46.316406 15.347656 46.242188 15.707031 45.484375 C 15.972656 44.890625 16.027344 44.613281 16.011719 43.691406 C 16.011719 43.046875 15.898438 42.203125 15.757812 41.648438 C 15.511719 40.726562 15.15625 39.753906 15.054688 39.753906 C 14.949219 39.753906 14.347656 40.851562 14.027344 41.648438 C 13.554688 42.796875 13.363281 43.878906 13.53125 44.535156 C 13.605469 44.8125 13.644531 45.054688 13.632812 45.054688 C 13.53125 45.054688 12.429688 42.996094 11.917969 41.859375 C 10.917969 39.601562 10.203125 37.242188 9.777344 34.78125 C 9.613281 33.808594 9.585938 33.027344 9.636719 31.183594 C 9.703125 28.570312 9.90625 27.386719 10.675781 25.039062 C 11.125 23.699219 11.496094 22.878906 11.339844 23.625 C 11.300781 23.800781 11.300781 24.140625 11.355469 24.355469 L 11.429688 24.761719 L 12.300781 24.710938 C 13.363281 24.632812 14.15625 24.179688 15.078125 23.121094 C 15.796875 22.300781 16.640625 21.101562 16.640625 20.925781 C 16.640625 20.761719 15.167969 20.910156 14.285156 21.164062 C 13.054688 21.53125 12.097656 22.148438 11.636719 22.90625 C 11.148438 23.675781 11.40625 22.980469 12.148438 21.515625 C 12.953125 19.914062 14.003906 18.234375 15.195312 16.644531 C 15.886719 15.726562 15.949219 15.675781 16.511719 15.597656 C 17.703125 15.445312 18.765625 14.449219 19.941406 12.394531 C 20.683594 11.105469 20.683594 10.953125 19.96875 11.066406 Z M 20.097656 11.472656 C 20.097656 11.671875 18.753906 13.742188 18.328125 14.199219 C 17.074219 15.535156 15.589844 15.738281 15.808594 14.527344 C 16.011719 13.363281 17.203125 12.253906 18.878906 11.671875 C 19.839844 11.34375 20.097656 11.296875 20.097656 11.472656 Z M 44.558594 11.9375 C 46.539062 12.519531 48 13.855469 48 15.105469 C 48 15.6875 47.757812 15.8125 47.054688 15.636719 C 46.335938 15.460938 45.476562 14.753906 44.8125 13.769531 C 44.210938 12.898438 43.609375 11.738281 43.75 11.738281 C 43.8125 11.738281 44.171875 11.824219 44.558594 11.9375 Z M 13.375 13.378906 C 13.515625 14.222656 13.492188 16.695312 13.324219 17.390625 C 13.132812 18.148438 12.441406 19.019531 12.121094 18.890625 C 12.007812 18.855469 11.789062 18.578125 11.636719 18.285156 C 11.25 17.53125 11.328125 16.140625 11.828125 15.082031 C 12.210938 14.25 13.070312 12.871094 13.210938 12.871094 C 13.246094 12.871094 13.324219 13.101562 13.375 13.378906 Z M 51.175781 14.058594 C 51.867188 15.105469 52.1875 15.839844 52.363281 16.847656 C 52.480469 17.53125 52.46875 17.757812 52.300781 18.273438 C 52.03125 19.042969 51.660156 19.421875 51.355469 19.234375 C 50.980469 19.007812 50.585938 18.3125 50.445312 17.65625 C 50.226562 16.671875 50.316406 13.25 50.546875 13.25 C 50.597656 13.25 50.878906 13.617188 51.175781 14.058594 Z M 16.128906 21.1875 C 16.128906 21.265625 15.796875 21.757812 15.371094 22.300781 C 14.308594 23.6875 13.121094 24.484375 12.097656 24.484375 C 11.660156 24.484375 11.648438 24.46875 11.648438 23.964844 C 11.648438 22.753906 12.980469 21.730469 15.105469 21.277344 C 16.167969 21.050781 16.128906 21.050781 16.128906 21.1875 Z M 48.894531 21.71875 C 49.867188 21.921875 50.804688 22.351562 51.355469 22.828125 C 51.890625 23.296875 52.300781 24.191406 52.160156 24.609375 C 52.070312 24.875 52.007812 24.886719 51.429688 24.824219 C 50.609375 24.722656 49.894531 24.304688 49.074219 23.449219 C 48.359375 22.691406 47.589844 21.644531 47.691406 21.542969 C 47.757812 21.480469 47.808594 21.480469 48.894531 21.71875 Z M 6.875 32.003906 C 8.371094 33.492188 8.832031 34.25 8.832031 35.234375 C 8.832031 35.828125 8.820312 35.839844 8.449219 35.839844 C 6.949219 35.839844 5.632812 33.886719 5.335938 31.195312 C 5.300781 30.894531 5.324219 30.667969 5.402344 30.667969 C 5.476562 30.667969 6.132812 31.273438 6.875 32.003906 Z M 15.359375 41.355469 C 15.886719 42.996094 15.832031 44.992188 15.257812 45.671875 C 15.039062 45.9375 15.039062 45.9375 14.644531 45.699219 C 13.902344 45.257812 13.621094 43.992188 13.964844 42.71875 C 14.144531 42.039062 14.859375 40.511719 14.988281 40.511719 C 15.054688 40.511719 15.21875 40.890625 15.359375 41.355469 Z M 49.855469 43.324219 C 50.074219 44.296875 50.023438 44.902344 49.636719 45.535156 C 49.140625 46.339844 48.640625 46.390625 48.308594 45.660156 C 47.886719 44.738281 48.050781 42.542969 48.652344 41.078125 L 48.804688 40.699219 L 49.230469 41.582031 C 49.460938 42.0625 49.742188 42.859375 49.855469 43.324219 Z M 18.238281 45.457031 C 19.429688 46.960938 19.980469 48.308594 19.738281 49.15625 C 19.636719 49.484375 19.570312 49.535156 19.226562 49.523438 C 18.316406 49.472656 17.484375 48.335938 17.265625 46.847656 C 17.140625 45.960938 17.230469 44.550781 17.40625 44.550781 C 17.472656 44.550781 17.84375 44.964844 18.238281 45.457031 Z M 46.515625 45.207031 C 46.65625 45.75 46.59375 47.148438 46.386719 47.832031 C 46.117188 48.738281 45.621094 49.445312 45.042969 49.734375 C 44.199219 50.152344 44.03125 50.039062 44.03125 49.015625 C 44.03125 48.03125 44.632812 46.859375 45.875 45.40625 C 46.347656 44.863281 46.414062 44.839844 46.515625 45.207031 Z M 22.644531 48.398438 C 24.21875 49.484375 24.972656 50.457031 25.164062 51.605469 L 25.253906 52.121094 L 24.613281 52.121094 C 23.476562 52.121094 22.554688 51.226562 21.953125 49.523438 C 21.605469 48.539062 21.425781 47.703125 21.566406 47.703125 C 21.621094 47.703125 22.105469 48.019531 22.644531 48.398438 Z M 42.046875 49.117188 C 41.496094 51.261719 40.421875 52.5 39.117188 52.5 C 38.667969 52.5 38.65625 52.488281 38.65625 52.03125 C 38.65625 51.375 39.105469 50.554688 39.871094 49.800781 C 40.640625 49.042969 42.152344 48.007812 42.214844 48.195312 C 42.238281 48.257812 42.164062 48.675781 42.046875 49.117188 Z M 43.019531 53.382812 C 43.40625 53.460938 44.3125 53.699219 45.042969 53.914062 C 46.578125 54.378906 46.578125 54.417969 44.824219 54.972656 C 43.238281 55.492188 41.726562 55.492188 40.664062 54.984375 C 40.203125 54.757812 39.859375 54.492188 39.742188 54.253906 C 39.550781 53.902344 39.550781 53.886719 39.960938 53.6875 C 40.832031 53.246094 41.765625 53.15625 43.019531 53.382812 Z M 43.019531 53.382812 "/>
<path style=" stroke:none;fill-rule:nonzero;fill:rgb(0%,0%,0%);fill-opacity:1;" d="M 17.230469 13.617188 C 16.601562 14.25 16.257812 14.664062 16.320312 14.765625 C 16.382812 14.867188 16.730469 14.613281 17.371094 13.996094 C 18.40625 12.984375 18.675781 12.621094 18.40625 12.621094 C 18.304688 12.621094 17.777344 13.074219 17.230469 13.617188 Z M 17.230469 13.617188 "/>
<path style=" stroke:none;fill-rule:nonzero;fill:rgb(0%,0%,0%);fill-opacity:1;" d="M 45.441406 13.492188 C 45.441406 13.679688 46.847656 14.816406 46.949219 14.703125 C 47 14.652344 46.71875 14.335938 46.335938 13.996094 C 45.632812 13.378906 45.441406 13.277344 45.441406 13.492188 Z M 45.441406 13.492188 "/>
<path style=" stroke:none;fill-rule:nonzero;fill:rgb(0%,0%,0%);fill-opacity:1;" d="M 12.558594 15.675781 C 12.289062 17.238281 12.25 17.667969 12.390625 17.667969 C 12.46875 17.667969 12.558594 17.480469 12.59375 17.25 C 12.632812 17.039062 12.722656 16.507812 12.800781 16.101562 C 12.953125 15.183594 12.964844 14.890625 12.8125 14.890625 C 12.75 14.890625 12.632812 15.246094 12.558594 15.675781 Z M 12.558594 15.675781 "/>
<path style=" stroke:none;fill-rule:nonzero;fill:rgb(0%,0%,0%);fill-opacity:1;" d="M 51.046875 15.597656 C 50.996094 15.636719 50.980469 15.851562 51.007812 16.066406 C 51.046875 16.292969 51.097656 16.796875 51.136719 17.1875 C 51.1875 17.59375 51.277344 17.921875 51.355469 17.921875 C 51.441406 17.921875 51.46875 17.566406 51.40625 16.808594 C 51.316406 15.761719 51.210938 15.421875 51.046875 15.597656 Z M 51.046875 15.597656 "/>
<path style=" stroke:none;fill-rule:nonzero;fill:rgb(0%,0%,0%);fill-opacity:1;" d="M 13.285156 22.742188 C 12.25 23.347656 11.957031 23.601562 12.289062 23.601562 C 12.492188 23.601562 14.59375 22.335938 14.59375 22.210938 C 14.59375 21.996094 14.4375 22.058594 13.285156 22.742188 Z M 13.285156 22.742188 "/>
<path style=" stroke:none;fill-rule:nonzero;fill:rgb(0%,0%,0%);fill-opacity:1;" d="M 49.40625 22.828125 C 49.40625 22.957031 51.226562 23.976562 51.457031 23.976562 C 51.828125 23.976562 51.46875 23.675781 50.558594 23.222656 C 49.460938 22.679688 49.40625 22.652344 49.40625 22.828125 Z M 49.40625 22.828125 "/>
<path style=" stroke:none;fill-rule:nonzero;fill:rgb(0%,0%,0%);fill-opacity:1;" d="M 6.273438 32.625 C 6.273438 32.789062 7.71875 34.832031 7.832031 34.832031 C 8.050781 34.832031 7.921875 34.515625 7.371094 33.773438 C 6.808594 33 6.273438 32.433594 6.273438 32.625 Z M 6.273438 32.625 "/>
<path style=" stroke:none;fill-rule:nonzero;fill:rgb(0%,0%,0%);fill-opacity:1;" d="M 14.59375 43.476562 C 14.59375 44.574219 14.628906 44.800781 14.785156 44.800781 C 14.9375 44.800781 14.976562 44.574219 14.976562 43.476562 C 14.976562 42.378906 14.9375 42.152344 14.785156 42.152344 C 14.628906 42.152344 14.59375 42.378906 14.59375 43.476562 Z M 14.59375 43.476562 "/>
<path style=" stroke:none;fill-rule:nonzero;fill:rgb(0%,0%,0%);fill-opacity:1;" d="M 48.894531 43.992188 C 48.894531 44.675781 48.945312 45.042969 49.023438 44.992188 C 49.101562 44.953125 49.152344 44.460938 49.152344 43.90625 C 49.152344 43.324219 49.101562 42.910156 49.023438 42.910156 C 48.945312 42.910156 48.894531 43.351562 48.894531 43.992188 Z M 48.894531 43.992188 "/>
<path style=" stroke:none;fill-rule:nonzero;fill:rgb(0%,0%,0%);fill-opacity:1;" d="M 17.832031 46.367188 C 18.484375 48.046875 19.085938 49.117188 19.058594 48.550781 C 19.046875 48.222656 18.097656 46.265625 17.933594 46.214844 C 17.804688 46.175781 17.777344 46.214844 17.832031 46.367188 Z M 17.832031 46.367188 "/>
<path style=" stroke:none;fill-rule:nonzero;fill:rgb(0%,0%,0%);fill-opacity:1;" d="M 45.261719 47.652344 C 44.824219 48.664062 44.761719 49.054688 45.054688 48.765625 C 45.300781 48.523438 45.953125 46.769531 45.835938 46.65625 C 45.773438 46.59375 45.53125 47.011719 45.261719 47.652344 Z M 45.261719 47.652344 "/>
<path style=" stroke:none;fill-rule:nonzero;fill:rgb(0%,0%,0%);fill-opacity:1;" d="M 22.65625 49.34375 C 22.65625 49.496094 23.972656 51.175781 24.21875 51.3125 C 24.28125 51.351562 24.371094 51.351562 24.410156 51.3125 C 24.488281 51.25 23.207031 49.636719 22.847656 49.34375 C 22.695312 49.21875 22.65625 49.21875 22.65625 49.34375 Z M 22.65625 49.34375 "/>
<path style=" stroke:none;fill-rule:nonzero;fill:rgb(0%,0%,0%);fill-opacity:1;" d="M 39.886719 50.871094 C 39.078125 51.804688 38.886719 52.171875 39.335938 51.90625 C 39.628906 51.730469 41.074219 50.015625 41 49.925781 C 40.859375 49.785156 40.769531 49.851562 39.886719 50.871094 Z M 39.886719 50.871094 "/>
<path style=" stroke:none;fill-rule:nonzero;fill:rgb(0%,0%,0%);fill-opacity:1;" d="M 40.449219 54.050781 C 40.449219 54.191406 40.753906 54.253906 41.894531 54.316406 C 42.675781 54.367188 43.457031 54.445312 43.621094 54.480469 C 43.8125 54.53125 43.902344 54.492188 43.902344 54.355469 C 43.902344 54.214844 43.636719 54.152344 42.664062 54.089844 C 41.972656 54.039062 41.191406 53.976562 40.933594 53.9375 C 40.5625 53.886719 40.449219 53.914062 40.449219 54.050781 Z M 40.449219 54.050781 "/>
<path style=" stroke:none;fill-rule:nonzero;fill:rgb(0%,0%,0%);fill-opacity:1;" d="M 15.898438 17.175781 C 14.886719 17.492188 14.015625 18.261719 13.886719 18.957031 C 13.761719 19.585938 13.847656 19.761719 14.335938 19.863281 C 15.847656 20.15625 17.355469 19.523438 19.136719 17.84375 C 19.890625 17.136719 19.902344 17.125 19.585938 17.039062 C 18.90625 16.835938 16.742188 16.910156 15.898438 17.175781 Z M 19.058594 17.277344 C 19.1875 17.367188 19.109375 17.503906 18.6875 17.871094 C 17.253906 19.171875 15.78125 19.8125 14.71875 19.613281 C 14.183594 19.5 14.144531 19.472656 14.183594 19.121094 C 14.207031 18.90625 14.324219 18.601562 14.453125 18.425781 C 14.734375 18.023438 15.832031 17.441406 16.539062 17.300781 C 17.28125 17.152344 18.839844 17.136719 19.058594 17.277344 Z M 19.058594 17.277344 "/>
<path style=" stroke:none;fill-rule:nonzero;fill:rgb(0%,0%,0%);fill-opacity:1;" d="M 15.972656 18.351562 C 14.910156 18.765625 14.667969 18.929688 15.054688 18.929688 C 15.359375 18.929688 17.40625 18.136719 17.40625 18.007812 C 17.40625 17.84375 16.972656 17.945312 15.972656 18.351562 Z M 15.972656 18.351562 "/>
<path style=" stroke:none;fill-rule:nonzero;fill:rgb(0%,0%,0%);fill-opacity:1;" d="M 8.78125 18.1875 C 8.113281 19.597656 7.898438 20.570312 7.960938 21.84375 C 8.027344 23.109375 8.398438 23.890625 9.152344 24.355469 C 9.601562 24.632812 9.613281 24.632812 9.882812 24.40625 C 10.609375 23.765625 10.789062 22.5 10.417969 20.746094 C 10.203125 19.648438 9.523438 17.542969 9.34375 17.367188 C 9.265625 17.289062 9.050781 17.605469 8.78125 18.1875 Z M 10.203125 21.328125 C 10.40625 22.488281 10.40625 22.566406 10.164062 23.273438 C 9.832031 24.292969 9.601562 24.40625 9.023438 23.851562 C 8.398438 23.246094 8.140625 22.351562 8.257812 21.164062 C 8.359375 20.203125 8.71875 18.878906 9.0625 18.234375 L 9.265625 17.859375 L 9.625 18.992188 C 9.832031 19.613281 10.085938 20.671875 10.203125 21.328125 Z M 10.203125 21.328125 "/>
<path style=" stroke:none;fill-rule:nonzero;fill:rgb(0%,0%,0%);fill-opacity:1;" d="M 8.972656 20.40625 C 9 21.542969 9.152344 22.652344 9.265625 22.617188 C 9.484375 22.566406 9.292969 19.8125 9.074219 19.8125 C 9.011719 19.8125 8.972656 20.078125 8.972656 20.40625 Z M 8.972656 20.40625 "/>
<path style=" stroke:none;fill-rule:nonzero;fill:rgb(0%,0%,0%);fill-opacity:1;" d="M 44.171875 17.390625 C 43.890625 17.480469 43.929688 17.542969 44.890625 18.425781 C 46.527344 19.953125 48.0625 20.546875 49.394531 20.191406 L 49.945312 20.054688 L 49.894531 19.511719 C 49.804688 18.753906 49.355469 18.222656 48.398438 17.757812 C 47.628906 17.390625 47.476562 17.367188 46.027344 17.328125 C 45.171875 17.316406 44.339844 17.339844 44.171875 17.390625 Z M 47.910156 17.859375 C 49 18.234375 49.972656 19.433594 49.546875 19.851562 C 49.304688 20.089844 47.886719 20.003906 47.230469 19.726562 C 46.617188 19.460938 45.644531 18.777344 44.964844 18.136719 C 44.660156 17.84375 44.582031 17.71875 44.710938 17.644531 C 44.953125 17.464844 47.230469 17.617188 47.910156 17.859375 Z M 47.910156 17.859375 "/>
<path style=" stroke:none;fill-rule:nonzero;fill:rgb(0%,0%,0%);fill-opacity:1;" d="M 46.488281 18.324219 C 46.554688 18.515625 48.652344 19.320312 48.804688 19.21875 C 48.984375 19.105469 48.753906 18.980469 47.65625 18.5625 C 46.464844 18.121094 46.425781 18.109375 46.488281 18.324219 Z M 46.488281 18.324219 "/>
<path style=" stroke:none;fill-rule:nonzero;fill:rgb(0%,0%,0%);fill-opacity:1;" d="M 54.222656 18.199219 C 53.8125 19.296875 53.390625 20.847656 53.234375 21.84375 C 53.054688 23.09375 53.210938 23.976562 53.734375 24.609375 C 54.09375 25.011719 54.09375 25.027344 54.488281 24.8125 C 56.089844 24.003906 56.308594 21.378906 55.015625 18.539062 C 54.796875 18.058594 54.578125 17.667969 54.515625 17.667969 C 54.464844 17.667969 54.324219 17.90625 54.222656 18.199219 Z M 54.898438 19.042969 C 55.832031 21.203125 55.707031 23.6875 54.605469 24.394531 C 54.132812 24.710938 54.027344 24.671875 53.734375 24.015625 C 53.363281 23.183594 53.464844 21.707031 54.015625 19.839844 C 54.246094 19.054688 54.476562 18.425781 54.527344 18.425781 C 54.578125 18.425781 54.746094 18.703125 54.898438 19.042969 Z M 54.898438 19.042969 "/>
<path style=" stroke:none;fill-rule:nonzero;fill:rgb(0%,0%,0%);fill-opacity:1;" d="M 54.488281 20.660156 C 54.347656 20.796875 54.386719 23.222656 54.527344 23.222656 C 54.605469 23.222656 54.65625 22.691406 54.65625 21.894531 C 54.65625 20.570312 54.644531 20.496094 54.488281 20.660156 Z M 54.488281 20.660156 "/>
<path style=" stroke:none;fill-rule:nonzero;fill:rgb(0%,0%,0%);fill-opacity:1;" d="M 33.832031 18.679688 C 31.578125 19.144531 29.953125 20.8125 29.953125 22.628906 C 29.953125 24.179688 30.59375 24.925781 34.355469 27.75 C 37.070312 29.808594 38.222656 30.957031 39.246094 32.609375 C 40.050781 33.910156 40.511719 35.25 40.792969 37.039062 C 41.304688 40.371094 40.5 43.085938 38.335938 45.230469 C 36.851562 46.707031 35.136719 47.515625 32.753906 47.832031 C 28.902344 48.359375 25.0625 46.519531 22.746094 43.035156 C 20.875 40.234375 21.160156 36.546875 23.449219 34.023438 C 23.796875 33.632812 24.332031 33.164062 24.640625 33 C 24.945312 32.8125 25.253906 32.523438 25.34375 32.320312 C 25.496094 31.953125 25.546875 30.832031 25.421875 30.703125 C 25.382812 30.667969 24.960938 30.90625 24.472656 31.222656 C 22.707031 32.371094 21.441406 34.074219 20.839844 36.09375 C 20.492188 37.253906 20.402344 39.210938 20.644531 40.347656 C 21.03125 42.113281 22.296875 44.257812 23.65625 45.445312 C 26.023438 47.515625 28.328125 48.359375 31.488281 48.347656 C 37.234375 48.308594 41.484375 45.28125 42.90625 40.195312 C 43.136719 39.351562 43.1875 38.84375 43.1875 37.101562 C 43.199219 34.640625 43.007812 33.785156 41.984375 31.738281 C 40.804688 29.378906 39.335938 27.828125 36.082031 25.53125 C 32.332031 22.878906 31.871094 22.425781 31.871094 21.429688 C 31.871094 21 32.257812 20.269531 32.628906 19.964844 C 33.5625 19.207031 35.148438 18.96875 36.160156 19.421875 C 36.839844 19.726562 37.707031 20.671875 38.335938 21.808594 C 38.617188 22.300781 38.898438 22.714844 38.964844 22.714844 C 39.027344 22.714844 39.039062 22.046875 39 21.101562 C 38.9375 19.839844 38.875 19.472656 38.707031 19.347656 C 38.386719 19.121094 36.261719 18.664062 35.265625 18.613281 C 34.777344 18.589844 34.125 18.613281 33.832031 18.679688 Z M 33.832031 18.679688 "/>
<path style=" stroke:none;fill-rule:nonzero;fill:rgb(0%,0%,0%);fill-opacity:1;" d="M 6.117188 23.878906 C 6.027344 24.179688 5.964844 25.140625 5.964844 26.0625 C 5.964844 27.472656 6.003906 27.800781 6.246094 28.421875 C 6.617188 29.34375 7.347656 30.074219 8.039062 30.25 C 8.664062 30.414062 8.753906 30.339844 8.972656 29.519531 C 9.191406 28.722656 8.984375 27.777344 8.320312 26.464844 C 7.730469 25.304688 6.503906 23.347656 6.375 23.347656 C 6.324219 23.347656 6.207031 23.585938 6.117188 23.878906 Z M 7.140625 24.949219 C 8.449219 27.132812 8.910156 28.433594 8.71875 29.304688 C 8.550781 30 8.421875 30.113281 7.9375 29.910156 C 7.359375 29.671875 6.71875 28.875 6.453125 28.042969 C 6.105469 26.96875 6.15625 23.8125 6.515625 24.042969 C 6.578125 24.066406 6.859375 24.484375 7.140625 24.949219 Z M 7.140625 24.949219 "/>
<path style=" stroke:none;fill-rule:nonzero;fill:rgb(0%,0%,0%);fill-opacity:1;" d="M 7 26.96875 C 7.179688 27.449219 7.386719 28.015625 7.460938 28.230469 C 7.539062 28.457031 7.667969 28.648438 7.757812 28.648438 C 7.886719 28.648438 7.808594 28.292969 7.488281 27.4375 C 7.246094 26.765625 7.039062 26.199219 7.039062 26.175781 C 7.039062 26.148438 6.949219 26.125 6.847656 26.125 C 6.707031 26.125 6.734375 26.300781 7 26.96875 Z M 7 26.96875 "/>
<path style=" stroke:none;fill-rule:nonzero;fill:rgb(0%,0%,0%);fill-opacity:1;" d="M 56.910156 24.332031 C 56.101562 25.605469 55.15625 27.347656 54.964844 27.941406 C 54.707031 28.6875 54.679688 29.554688 54.898438 30.1875 C 55.089844 30.753906 55.410156 30.804688 56.167969 30.425781 C 57.304688 29.847656 57.882812 28.507812 57.855469 26.402344 C 57.855469 25.125 57.625 23.839844 57.40625 23.777344 C 57.332031 23.75 57.113281 24.003906 56.910156 24.332031 Z M 57.546875 25.847656 C 57.691406 27.738281 57.304688 29.101562 56.398438 29.882812 C 55.871094 30.339844 55.449219 30.492188 55.257812 30.300781 C 55.179688 30.226562 55.105469 29.859375 55.066406 29.480469 C 54.988281 28.472656 55.335938 27.523438 56.550781 25.519531 C 57.371094 24.140625 57.433594 24.167969 57.546875 25.847656 Z M 57.546875 25.847656 "/>
<path style=" stroke:none;fill-rule:nonzero;fill:rgb(0%,0%,0%);fill-opacity:1;" d="M 56.269531 27.664062 C 55.972656 28.40625 55.847656 28.863281 55.9375 28.949219 C 56.0625 29.078125 56.0625 29.050781 56.652344 27.539062 C 56.984375 26.679688 57.023438 26.503906 56.84375 26.503906 C 56.78125 26.503906 56.523438 27.019531 56.269531 27.664062 Z M 56.269531 27.664062 "/>
<path style=" stroke:none;fill-rule:nonzero;fill:rgb(0%,0%,0%);fill-opacity:1;" d="M 24.894531 25.089844 C 25.242188 25.277344 25.601562 25.570312 25.691406 25.746094 C 25.816406 25.996094 25.84375 27.574219 25.816406 32.976562 L 25.792969 39.90625 L 25.40625 40.207031 C 25.203125 40.371094 24.871094 40.535156 24.679688 40.585938 C 24.179688 40.6875 24.230469 40.839844 24.804688 40.941406 C 25.867188 41.105469 29.3125 40.976562 29.3125 40.761719 C 29.3125 40.710938 29.144531 40.597656 28.941406 40.511719 C 28.734375 40.433594 28.429688 40.21875 28.261719 40.042969 L 27.96875 39.726562 L 27.929688 33 C 27.890625 25.328125 27.867188 25.59375 28.851562 25.140625 C 29.171875 24.988281 29.441406 24.835938 29.441406 24.796875 C 29.441406 24.761719 28.273438 24.734375 26.855469 24.734375 L 24.257812 24.734375 Z M 24.894531 25.089844 "/>
<path style=" stroke:none;fill-rule:nonzero;fill:rgb(0%,0%,0%);fill-opacity:1;" d="M 35.585938 24.785156 C 35.585938 24.886719 37.171875 25.996094 37.324219 25.996094 C 37.453125 25.996094 38.488281 25.277344 38.976562 24.847656 C 39.039062 24.785156 38.324219 24.734375 37.335938 24.734375 C 36.378906 24.734375 35.585938 24.761719 35.585938 24.785156 Z M 35.585938 24.785156 "/>
<path style=" stroke:none;fill-rule:nonzero;fill:rgb(0%,0%,0%);fill-opacity:1;" d="M 13.695312 25.417969 C 12.1875 25.972656 10.839844 26.980469 10.34375 27.953125 C 10.0625 28.484375 9.984375 29.214844 10.152344 29.835938 C 10.253906 30.175781 10.292969 30.1875 10.777344 30.125 C 12.007812 29.960938 13.09375 28.835938 13.925781 26.867188 C 14.628906 25.175781 14.617188 25.089844 13.695312 25.417969 Z M 13.566406 26.917969 C 12.890625 28.523438 12.070312 29.457031 11.035156 29.796875 C 10.496094 29.972656 10.367188 29.835938 10.367188 29.050781 C 10.367188 27.941406 11.339844 26.832031 12.992188 26.035156 C 14.078125 25.519531 14.132812 25.59375 13.566406 26.917969 Z M 13.566406 26.917969 "/>
<path style=" stroke:none;fill-rule:nonzero;fill:rgb(0%,0%,0%);fill-opacity:1;" d="M 11.726562 27.980469 C 10.894531 28.949219 10.765625 29.152344 10.996094 29.152344 C 11.109375 29.152344 12.800781 27.210938 12.800781 27.070312 C 12.800781 26.832031 12.453125 27.132812 11.726562 27.980469 Z M 11.726562 27.980469 "/>
<path style=" stroke:none;fill-rule:nonzero;fill:rgb(0%,0%,0%);fill-opacity:1;" d="M 49.28125 25.683594 C 49.28125 25.921875 50.253906 28.179688 50.558594 28.648438 C 51.289062 29.769531 52.351562 30.539062 53.171875 30.539062 C 53.414062 30.539062 53.515625 30.441406 53.632812 30.085938 C 54.15625 28.546875 52.660156 26.691406 50.226562 25.871094 C 49.460938 25.605469 49.28125 25.570312 49.28125 25.683594 Z M 51.328125 26.703125 C 52.121094 27.160156 52.929688 27.902344 53.210938 28.445312 C 53.441406 28.886719 53.492188 29.972656 53.285156 30.175781 C 52.929688 30.527344 51.648438 29.734375 50.945312 28.710938 C 50.585938 28.195312 49.792969 26.425781 49.792969 26.136719 C 49.792969 25.960938 50.46875 26.199219 51.328125 26.703125 Z M 51.328125 26.703125 "/>
<path style=" stroke:none;fill-rule:nonzero;fill:rgb(0%,0%,0%);fill-opacity:1;" d="M 51.671875 28.382812 C 52.402344 29.253906 52.609375 29.417969 52.609375 29.140625 C 52.609375 28.925781 51.300781 27.511719 51.109375 27.511719 C 50.996094 27.511719 51.238281 27.890625 51.671875 28.382812 Z M 51.671875 28.382812 "/>
<path style=" stroke:none;fill-rule:nonzero;fill:rgb(0%,0%,0%);fill-opacity:1;" d="M 35.671875 29.226562 C 35.621094 29.277344 35.585938 29.933594 35.585938 30.691406 C 35.585938 31.4375 35.546875 32.054688 35.496094 32.054688 C 35.429688 32.054688 35.226562 31.941406 35.007812 31.789062 C 34.214844 31.246094 32.574219 30.539062 31.628906 30.339844 C 31.089844 30.210938 30.144531 30.113281 29.503906 30.113281 L 28.351562 30.097656 L 28.3125 30.742188 C 28.273438 31.488281 28.351562 31.550781 29.566406 31.550781 C 30.539062 31.550781 31.488281 31.828125 32.769531 32.460938 C 33.957031 33.039062 35.136719 34.035156 35.40625 34.667969 C 35.53125 34.957031 35.585938 35.714844 35.585938 37.355469 C 35.585938 40.21875 35.546875 40.335938 34.203125 40.699219 C 34.046875 40.75 33.945312 40.839844 33.984375 40.902344 C 34.085938 41.054688 39.167969 41.054688 39.167969 40.890625 C 39.167969 40.828125 38.875 40.648438 38.527344 40.5 C 38.167969 40.347656 37.824219 40.121094 37.761719 39.992188 C 37.683594 39.867188 37.632812 37.949219 37.632812 35.386719 L 37.632812 31.007812 L 36.699219 30.074219 C 36.1875 29.554688 35.726562 29.179688 35.671875 29.226562 Z M 35.671875 29.226562 "/>
<path style=" stroke:none;fill-rule:nonzero;fill:rgb(0%,0%,0%);fill-opacity:1;" d="M 12.453125 30.589844 C 11.046875 31.601562 10.113281 33.027344 10.113281 34.125 C 10.113281 34.894531 10.445312 35.640625 10.828125 35.691406 C 11.199219 35.742188 12.160156 34.996094 12.503906 34.390625 C 12.964844 33.59375 13.324219 32.332031 13.414062 31.132812 C 13.492188 30.328125 13.476562 30.035156 13.363281 30.035156 C 13.273438 30.035156 12.863281 30.289062 12.453125 30.589844 Z M 13.183594 30.820312 C 13.171875 31.601562 12.773438 33.191406 12.414062 33.910156 C 11.992188 34.742188 11.316406 35.386719 10.917969 35.3125 C 10.40625 35.222656 10.226562 34.1875 10.546875 33.28125 C 10.777344 32.648438 11.660156 31.550781 12.378906 30.996094 C 13.070312 30.464844 13.183594 30.441406 13.183594 30.820312 Z M 13.183594 30.820312 "/>
<path style=" stroke:none;fill-rule:nonzero;fill:rgb(0%,0%,0%);fill-opacity:1;" d="M 11.609375 32.964844 C 11.160156 33.820312 10.980469 34.414062 11.25 34.125 C 11.429688 33.9375 12.289062 32.34375 12.289062 32.195312 C 12.289062 31.851562 12.042969 32.132812 11.609375 32.964844 Z M 11.609375 32.964844 "/>
<path style=" stroke:none;fill-rule:nonzero;fill:rgb(0%,0%,0%);fill-opacity:1;" d="M 50.304688 30.882812 C 50.316406 32.003906 50.664062 33.46875 51.136719 34.429688 C 51.519531 35.171875 51.726562 35.425781 52.199219 35.726562 C 52.53125 35.929688 52.875 36.082031 52.980469 36.070312 C 53.082031 36.042969 53.285156 35.839844 53.414062 35.613281 C 53.761719 35.046875 53.746094 34.050781 53.402344 33.28125 C 53.105469 32.636719 51.429688 30.894531 50.714844 30.503906 L 50.304688 30.277344 Z M 51.417969 31.398438 C 52.160156 31.992188 52.941406 32.902344 53.183594 33.492188 C 53.566406 34.390625 53.351562 35.714844 52.824219 35.714844 C 52.671875 35.714844 52.300781 35.4375 51.96875 35.109375 C 51.519531 34.65625 51.300781 34.289062 51.097656 33.632812 C 50.804688 32.722656 50.535156 30.917969 50.699219 30.917969 C 50.753906 30.917969 51.070312 31.132812 51.417969 31.398438 Z M 51.417969 31.398438 "/>
<path style=" stroke:none;fill-rule:nonzero;fill:rgb(0%,0%,0%);fill-opacity:1;" d="M 51.480469 32.648438 C 52.070312 33.960938 52.492188 34.707031 52.59375 34.65625 C 52.8125 34.515625 51.839844 32.558594 51.558594 32.558594 C 51.496094 32.558594 51.457031 32.597656 51.480469 32.648438 Z M 51.480469 32.648438 "/>
<path style=" stroke:none;fill-rule:nonzero;fill:rgb(0%,0%,0%);fill-opacity:1;" d="M 57.152344 31.703125 C 55.5 33.28125 54.847656 34.175781 54.667969 35.132812 C 54.539062 35.839844 54.695312 36.597656 54.988281 36.597656 C 55.601562 36.597656 56.382812 36.269531 56.945312 35.765625 C 58.023438 34.804688 58.816406 32.722656 58.726562 31.046875 L 58.6875 30.226562 Z M 58.417969 31.765625 C 58.125 34.164062 56.882812 36.03125 55.476562 36.195312 L 54.875 36.257812 L 54.9375 35.5625 C 55.027344 34.464844 55.449219 33.796875 56.945312 32.359375 C 57.691406 31.640625 58.355469 31.046875 58.40625 31.046875 C 58.46875 31.046875 58.46875 31.375 58.417969 31.765625 Z M 58.417969 31.765625 "/>
<path style=" stroke:none;fill-rule:nonzero;fill:rgb(0%,0%,0%);fill-opacity:1;" d="M 56.410156 34.1875 C 55.71875 35.132812 55.550781 35.460938 55.78125 35.460938 C 55.832031 35.460938 56.191406 35.019531 56.574219 34.492188 C 57.496094 33.230469 57.523438 33.191406 57.304688 33.191406 C 57.214844 33.191406 56.804688 33.644531 56.410156 34.1875 Z M 56.410156 34.1875 "/>
<path style=" stroke:none;fill-rule:nonzero;fill:rgb(0%,0%,0%);fill-opacity:1;" d="M 13.222656 35.234375 C 13.019531 35.460938 12.644531 35.929688 12.429688 36.257812 C 11.1875 38.074219 10.980469 39.828125 11.902344 40.902344 C 12.261719 41.320312 12.273438 41.332031 12.632812 41.128906 C 13.503906 40.625 14.078125 39.273438 14.078125 37.695312 C 14.078125 36.773438 13.824219 34.832031 13.695312 34.832031 C 13.65625 34.832031 13.441406 35.019531 13.222656 35.234375 Z M 13.65625 35.929688 C 13.835938 36.839844 13.761719 38.769531 13.515625 39.464844 C 13.285156 40.15625 12.699219 40.890625 12.390625 40.890625 C 12.289062 40.890625 12.082031 40.675781 11.929688 40.398438 C 11.597656 39.816406 11.558594 38.945312 11.839844 38.011719 C 12.042969 37.367188 13.234375 35.460938 13.441406 35.460938 C 13.503906 35.460938 13.59375 35.675781 13.65625 35.929688 Z M 13.65625 35.929688 "/>
<path style=" stroke:none;fill-rule:nonzero;fill:rgb(0%,0%,0%);fill-opacity:1;" d="M 12.8125 37.445312 C 12.402344 38.972656 12.261719 39.640625 12.339844 39.714844 C 12.480469 39.867188 12.570312 39.640625 12.875 38.402344 C 13.222656 36.988281 13.222656 36.976562 13.054688 36.976562 C 12.992188 36.976562 12.875 37.191406 12.8125 37.445312 Z M 12.8125 37.445312 "/>
<path style=" stroke:none;fill-rule:nonzero;fill:rgb(0%,0%,0%);fill-opacity:1;" d="M 50.007812 35.398438 C 49.972656 35.5 49.867188 36.167969 49.777344 36.890625 C 49.664062 37.898438 49.664062 38.402344 49.792969 39.097656 C 49.957031 40.105469 50.546875 41.179688 51.097656 41.496094 C 51.429688 41.683594 51.457031 41.683594 51.761719 41.40625 C 52.941406 40.320312 52.609375 38.1875 50.929688 36.054688 C 50.238281 35.171875 50.125 35.085938 50.007812 35.398438 Z M 51.058594 36.738281 C 51.789062 37.757812 52.132812 38.667969 52.148438 39.5625 C 52.160156 40.246094 51.800781 41.117188 51.480469 41.242188 C 51.1875 41.355469 50.46875 40.484375 50.253906 39.742188 C 49.957031 38.769531 50.007812 35.839844 50.316406 35.839844 C 50.378906 35.839844 50.714844 36.246094 51.058594 36.738281 Z M 51.058594 36.738281 "/>
<path style=" stroke:none;fill-rule:nonzero;fill:rgb(0%,0%,0%);fill-opacity:1;" d="M 50.558594 37.660156 C 50.558594 38.050781 51.210938 40.007812 51.339844 40.007812 C 51.507812 40.007812 51.496094 39.878906 51.125 38.71875 C 50.789062 37.660156 50.558594 37.230469 50.558594 37.660156 Z M 50.558594 37.660156 "/>
<path style=" stroke:none;fill-rule:nonzero;fill:rgb(0%,0%,0%);fill-opacity:1;" d="M 5.441406 36.875 C 6.078125 39.1875 7.308594 41.066406 8.601562 41.722656 C 9.113281 41.988281 10.136719 42.089844 10.46875 41.910156 C 11.148438 41.558594 10.546875 40.03125 9.304688 38.933594 C 8.511719 38.238281 5.863281 36.597656 5.542969 36.597656 C 5.414062 36.597656 5.390625 36.6875 5.441406 36.875 Z M 7.078125 37.746094 C 9.34375 39.136719 10.214844 40.019531 10.34375 41.078125 C 10.394531 41.53125 10.355469 41.621094 10.125 41.683594 C 9.28125 41.898438 7.949219 41.140625 7.140625 39.96875 C 6.464844 38.984375 5.683594 37.101562 5.953125 37.101562 C 5.992188 37.101562 6.488281 37.394531 7.078125 37.746094 Z M 7.078125 37.746094 "/>
<path style=" stroke:none;fill-rule:nonzero;fill:rgb(0%,0%,0%);fill-opacity:1;" d="M 7.425781 38.90625 C 7.425781 39.109375 8.984375 40.636719 9.191406 40.636719 C 9.371094 40.636719 7.691406 38.757812 7.527344 38.742188 C 7.460938 38.742188 7.425781 38.820312 7.425781 38.90625 Z M 7.425781 38.90625 "/>
<path style=" stroke:none;fill-rule:nonzero;fill:rgb(0%,0%,0%);fill-opacity:1;" d="M 57.152344 37.496094 C 54.988281 38.730469 53.773438 39.742188 53.335938 40.664062 C 53.070312 41.230469 53.054688 42.0625 53.3125 42.277344 C 53.605469 42.515625 54.707031 42.339844 55.359375 41.976562 C 56.433594 41.34375 57.421875 39.929688 58.0625 38.085938 C 58.226562 37.59375 58.367188 37.140625 58.367188 37.078125 C 58.367188 36.875 58.023438 36.988281 57.152344 37.496094 Z M 57.460938 38.808594 C 56.945312 40.03125 56.140625 41.117188 55.359375 41.621094 C 54.859375 41.949219 54.605469 42.023438 54.054688 42.023438 C 53.402344 42.023438 53.375 42.011719 53.375 41.671875 C 53.375 41.253906 53.761719 40.433594 54.167969 39.992188 C 54.628906 39.476562 55.566406 38.792969 56.71875 38.101562 C 57.984375 37.34375 58.046875 37.40625 57.460938 38.808594 Z M 57.460938 38.808594 "/>
<path style=" stroke:none;fill-rule:nonzero;fill:rgb(0%,0%,0%);fill-opacity:1;" d="M 55.21875 40.144531 C 54.167969 41.066406 54.003906 41.269531 54.296875 41.269531 C 54.554688 41.269531 56.523438 39.4375 56.371094 39.335938 C 56.292969 39.300781 55.78125 39.664062 55.21875 40.144531 Z M 55.21875 40.144531 "/>
<path style=" stroke:none;fill-rule:nonzero;fill:rgb(0%,0%,0%);fill-opacity:1;" d="M 7.296875 43.046875 C 7.296875 43.3125 8.078125 44.625 8.753906 45.507812 C 10.1875 47.363281 11.941406 48.082031 13.324219 47.390625 C 13.65625 47.210938 13.707031 47.136719 13.632812 46.847656 C 13.3125 45.570312 11.160156 44.070312 8.472656 43.238281 C 7.246094 42.859375 7.296875 42.871094 7.296875 43.046875 Z M 8.910156 43.714844 C 10.664062 44.296875 12.402344 45.355469 12.980469 46.175781 C 13.554688 46.996094 13.335938 47.324219 12.199219 47.324219 C 10.878906 47.324219 9.460938 46.253906 8.34375 44.421875 C 8.050781 43.929688 7.808594 43.515625 7.808594 43.476562 C 7.808594 43.363281 8 43.414062 8.910156 43.714844 Z M 8.910156 43.714844 "/>
<path style=" stroke:none;fill-rule:nonzero;fill:rgb(0%,0%,0%);fill-opacity:1;" d="M 9.421875 44.777344 C 9.34375 44.890625 11.789062 46.570312 12.03125 46.570312 C 12.363281 46.570312 12.070312 46.289062 11.125 45.699219 C 10.546875 45.332031 9.957031 44.953125 9.792969 44.851562 C 9.625 44.75 9.460938 44.714844 9.421875 44.777344 Z M 9.421875 44.777344 "/>
<path style=" stroke:none;fill-rule:nonzero;fill:rgb(0%,0%,0%);fill-opacity:1;" d="M 55.117188 43.679688 C 52.671875 44.484375 50.96875 45.585938 50.378906 46.746094 C 49.996094 47.464844 49.996094 47.476562 50.238281 47.652344 C 51.339844 48.449219 53.160156 47.957031 54.515625 46.492188 C 55.117188 45.863281 56.113281 44.386719 56.398438 43.730469 C 56.628906 43.171875 56.601562 43.171875 55.117188 43.679688 Z M 55.9375 43.878906 C 55.9375 44.03125 55.246094 45.117188 54.707031 45.824219 C 53.707031 47.109375 52.53125 47.765625 51.367188 47.679688 C 50.507812 47.601562 50.34375 47.464844 50.546875 46.972656 C 50.894531 46.152344 52.414062 45.066406 54.335938 44.273438 C 55.4375 43.816406 55.9375 43.691406 55.9375 43.878906 Z M 55.9375 43.878906 "/>
<path style=" stroke:none;fill-rule:nonzero;fill:rgb(0%,0%,0%);fill-opacity:1;" d="M 52.800781 45.949219 C 51.558594 46.632812 51.367188 46.769531 51.496094 46.898438 C 51.609375 47.011719 54.015625 45.648438 54.015625 45.457031 C 54.015625 45.382812 54.003906 45.304688 53.992188 45.304688 C 53.964844 45.304688 53.441406 45.597656 52.800781 45.949219 Z M 52.800781 45.949219 "/>
<path style=" stroke:none;fill-rule:nonzero;fill:rgb(0%,0%,0%);fill-opacity:1;" d="M 11.390625 49.773438 C 13.441406 51.867188 16.703125 52.652344 18.085938 51.390625 C 18.558594 50.949219 18.523438 50.71875 17.933594 50.191406 C 17.113281 49.457031 16.433594 49.320312 13.441406 49.257812 L 10.816406 49.195312 Z M 16.5 49.800781 C 16.882812 49.914062 17.394531 50.140625 17.625 50.328125 C 18.214844 50.757812 18.152344 51.085938 17.40625 51.464844 C 16.28125 52.046875 14.503906 51.65625 12.699219 50.429688 C 11.210938 49.445312 11.25 49.421875 13.707031 49.507812 C 15.066406 49.558594 16.050781 49.660156 16.5 49.800781 Z M 16.5 49.800781 "/>
<path style=" stroke:none;fill-rule:nonzero;fill:rgb(0%,0%,0%);fill-opacity:1;" d="M 13.847656 50.253906 C 13.914062 50.441406 16.871094 51 16.972656 50.835938 C 17.0625 50.695312 16.921875 50.65625 15.359375 50.355469 C 13.773438 50.050781 13.785156 50.050781 13.847656 50.253906 Z M 13.847656 50.253906 "/>
<path style=" stroke:none;fill-rule:nonzero;fill:rgb(0%,0%,0%);fill-opacity:1;" d="M 47.488281 49.800781 C 46.578125 49.988281 45.746094 50.480469 45.453125 51.011719 C 45.273438 51.3125 45.273438 51.375 45.503906 51.628906 C 46.503906 52.726562 48.960938 52.574219 50.929688 51.289062 C 51.800781 50.71875 52.863281 49.851562 52.863281 49.699219 C 52.863281 49.523438 48.410156 49.597656 47.488281 49.800781 Z M 52.097656 49.964844 C 52.097656 50.128906 50.839844 51.035156 50.113281 51.402344 C 48.398438 52.246094 46.824219 52.335938 45.9375 51.628906 C 45.671875 51.414062 45.65625 51.351562 45.796875 51.0625 C 46.015625 50.582031 47.15625 50.101562 48.292969 49.976562 C 49.613281 49.835938 52.097656 49.824219 52.097656 49.964844 Z M 52.097656 49.964844 "/>
<path style=" stroke:none;fill-rule:nonzero;fill:rgb(0%,0%,0%);fill-opacity:1;" d="M 48.832031 50.695312 C 48.550781 50.707031 47.898438 50.757812 47.398438 50.808594 C 46.886719 50.847656 46.464844 50.933594 46.464844 51.011719 C 46.464844 51.136719 49.601562 51.035156 49.84375 50.898438 C 49.957031 50.820312 49.664062 50.605469 49.472656 50.632812 C 49.40625 50.644531 49.113281 50.671875 48.832031 50.695312 Z M 48.832031 50.695312 "/>
<path style=" stroke:none;fill-rule:nonzero;fill:rgb(0%,0%,0%);fill-opacity:1;" d="M 19.519531 52.992188 C 18.097656 53.359375 17.0625 53.710938 16.84375 53.902344 C 16.78125 53.964844 17.152344 54.203125 17.664062 54.445312 C 19.992188 55.542969 22.707031 55.554688 23.910156 54.46875 C 24.179688 54.230469 24.574219 53.625 24.574219 53.460938 C 24.574219 53.421875 24.308594 53.230469 23.972656 53.042969 C 23.449219 52.738281 23.207031 52.6875 22.144531 52.664062 C 21.132812 52.625 20.683594 52.6875 19.519531 52.992188 Z M 23.65625 53.246094 C 23.949219 53.394531 24.191406 53.546875 24.191406 53.585938 C 24.191406 53.835938 23.589844 54.417969 23.066406 54.671875 C 21.953125 55.199219 19.738281 55.023438 17.984375 54.253906 L 17.34375 53.976562 L 18.445312 53.625 C 20.941406 52.828125 22.578125 52.703125 23.65625 53.246094 Z M 23.65625 53.246094 "/>
<path style=" stroke:none;fill-rule:nonzero;fill:rgb(0%,0%,0%);fill-opacity:1;" d="M 19.800781 53.835938 C 19.558594 54.089844 19.839844 54.140625 21.324219 54.140625 C 22.554688 54.140625 22.925781 54.101562 22.886719 53.976562 C 22.824219 53.8125 19.96875 53.6875 19.800781 53.835938 Z M 19.800781 53.835938 "/>
</g>
</svg>
